<svg width="668" height="220" viewBox="0 0 668 220" fill="none" xmlns="http://www.w3.org/2000/svg">
<g clip-path="url(#clip0_429_262)">
<path d="M65 185H663" stroke="black"/>
<path d="M65 191V185" stroke="black"/>
<path d="M64.75 203.119C64.108 203.119 63.5611 202.945 63.1094 202.595C62.6577 202.243 62.3125 201.733 62.0739 201.065C61.8352 200.395 61.7159 199.585 61.7159 198.636C61.7159 197.693 61.8352 196.888 62.0739 196.22C62.3153 195.55 62.6619 195.038 63.1136 194.686C63.5682 194.331 64.1136 194.153 64.75 194.153C65.3864 194.153 65.9304 194.331 66.3821 194.686C66.8366 195.038 67.1832 195.55 67.4219 196.22C67.6634 196.888 67.7841 197.693 67.7841 198.636C67.7841 199.585 67.6648 200.395 67.4261 201.065C67.1875 201.733 66.8423 202.243 66.3906 202.595C65.9389 202.945 65.392 203.119 64.75 203.119ZM64.75 202.182C65.3864 202.182 65.8807 201.875 66.233 201.261C66.5852 200.648 66.7614 199.773 66.7614 198.636C66.7614 197.881 66.6804 197.237 66.5185 196.706C66.3594 196.175 66.1293 195.77 65.8281 195.491C65.5298 195.213 65.1705 195.074 64.75 195.074C64.1193 195.074 63.6264 195.385 63.2713 196.007C62.9162 196.626 62.7386 197.503 62.7386 198.636C62.7386 199.392 62.8182 200.034 62.9773 200.562C63.1364 201.091 63.3651 201.493 63.6634 201.768C63.9645 202.044 64.3267 202.182 64.75 202.182Z" fill="black"/>
<path d="M214.5 191V185" stroke="black"/>
<path d="M215.472 194.273V203H214.415V195.381H214.364L212.233 196.795V195.722L214.415 194.273H215.472Z" fill="black"/>
<path d="M364 191V185" stroke="black"/>
<path d="M360.903 203V202.233L363.784 199.08C364.122 198.71 364.401 198.389 364.619 198.116C364.838 197.841 365 197.582 365.105 197.341C365.213 197.097 365.267 196.841 365.267 196.574C365.267 196.267 365.193 196.001 365.045 195.777C364.901 195.553 364.702 195.379 364.449 195.257C364.196 195.135 363.912 195.074 363.597 195.074C363.261 195.074 362.969 195.143 362.719 195.283C362.472 195.419 362.28 195.611 362.143 195.858C362.01 196.105 361.943 196.395 361.943 196.727H360.938C360.938 196.216 361.055 195.767 361.291 195.381C361.527 194.994 361.848 194.693 362.254 194.477C362.663 194.261 363.122 194.153 363.631 194.153C364.142 194.153 364.595 194.261 364.99 194.477C365.385 194.693 365.695 194.984 365.919 195.351C366.143 195.717 366.256 196.125 366.256 196.574C366.256 196.895 366.197 197.209 366.081 197.516C365.967 197.82 365.768 198.159 365.484 198.534C365.203 198.906 364.812 199.361 364.312 199.898L362.352 201.994V202.062H366.409V203H360.903Z" fill="black"/>
<path d="M513.5 191V185" stroke="black"/>
<path d="M513.352 203.119C512.79 203.119 512.288 203.023 511.848 202.83C511.411 202.636 511.063 202.368 510.804 202.024C510.548 201.678 510.409 201.276 510.386 200.818H511.46C511.483 201.099 511.58 201.342 511.75 201.547C511.92 201.749 512.143 201.905 512.419 202.016C512.695 202.126 513 202.182 513.335 202.182C513.71 202.182 514.043 202.116 514.332 201.986C514.622 201.855 514.849 201.673 515.014 201.44C515.179 201.207 515.261 200.938 515.261 200.631C515.261 200.31 515.182 200.027 515.023 199.783C514.864 199.536 514.631 199.342 514.324 199.203C514.017 199.064 513.642 198.994 513.199 198.994H512.5V198.057H513.199C513.545 198.057 513.849 197.994 514.111 197.869C514.375 197.744 514.581 197.568 514.729 197.341C514.879 197.114 514.955 196.847 514.955 196.54C514.955 196.244 514.889 195.987 514.759 195.768C514.628 195.55 514.443 195.379 514.205 195.257C513.969 195.135 513.69 195.074 513.369 195.074C513.068 195.074 512.784 195.129 512.517 195.24C512.253 195.348 512.037 195.506 511.869 195.713C511.702 195.918 511.611 196.165 511.597 196.455H510.574C510.591 195.997 510.729 195.597 510.987 195.253C511.246 194.906 511.584 194.636 512.001 194.443C512.422 194.25 512.884 194.153 513.386 194.153C513.926 194.153 514.389 194.263 514.776 194.482C515.162 194.697 515.459 194.983 515.666 195.338C515.874 195.693 515.977 196.077 515.977 196.489C515.977 196.98 515.848 197.399 515.589 197.746C515.334 198.092 514.986 198.332 514.545 198.466V198.534C515.097 198.625 515.527 198.859 515.837 199.237C516.146 199.612 516.301 200.077 516.301 200.631C516.301 201.105 516.172 201.531 515.913 201.909C515.658 202.284 515.308 202.58 514.865 202.795C514.422 203.011 513.918 203.119 513.352 203.119Z" fill="black"/>
<path d="M663 191V185" stroke="black"/>
<path d="M659.699 201.21V200.341L663.534 194.273H664.165V195.619H663.739L660.841 200.205V200.273H666.006V201.21H659.699ZM663.807 203V200.946V200.541V194.273H664.812V203H663.807Z" fill="black"/>
<path d="M65 25V185" stroke="black"/>
<path d="M59 185H65" stroke="black"/>
<path d="M49.75 185.119C49.108 185.119 48.5611 184.945 48.1094 184.595C47.6577 184.243 47.3125 183.733 47.0739 183.065C46.8352 182.395 46.7159 181.585 46.7159 180.636C46.7159 179.693 46.8352 178.888 47.0739 178.22C47.3153 177.55 47.6619 177.038 48.1136 176.686C48.5682 176.331 49.1136 176.153 49.75 176.153C50.3864 176.153 50.9304 176.331 51.3821 176.686C51.8366 177.038 52.1832 177.55 52.4219 178.22C52.6634 178.888 52.7841 179.693 52.7841 180.636C52.7841 181.585 52.6648 182.395 52.4261 183.065C52.1875 183.733 51.8423 184.243 51.3906 184.595C50.9389 184.945 50.392 185.119 49.75 185.119ZM49.75 184.182C50.3864 184.182 50.8807 183.875 51.233 183.261C51.5852 182.648 51.7614 181.773 51.7614 180.636C51.7614 179.881 51.6804 179.237 51.5185 178.706C51.3594 178.175 51.1293 177.77 50.8281 177.491C50.5298 177.213 50.1705 177.074 49.75 177.074C49.1193 177.074 48.6264 177.385 48.2713 178.007C47.9162 178.626 47.7386 179.503 47.7386 180.636C47.7386 181.392 47.8182 182.034 47.9773 182.562C48.1364 183.091 48.3651 183.493 48.6634 183.768C48.9645 184.044 49.3267 184.182 49.75 184.182Z" fill="black"/>
<path d="M59 145H65" stroke="black"/>
<path d="M31.9034 145V144.233L34.7841 141.08C35.1222 140.71 35.4006 140.389 35.6193 140.116C35.8381 139.841 36 139.582 36.1051 139.341C36.2131 139.097 36.267 138.841 36.267 138.574C36.267 138.267 36.1932 138.001 36.0455 137.777C35.9006 137.553 35.7017 137.379 35.4489 137.257C35.196 137.135 34.9119 137.074 34.5966 137.074C34.2614 137.074 33.9688 137.143 33.7188 137.283C33.4716 137.419 33.2798 137.611 33.1435 137.858C33.0099 138.105 32.9432 138.395 32.9432 138.727H31.9375C31.9375 138.216 32.0554 137.767 32.2912 137.381C32.527 136.994 32.848 136.693 33.2543 136.477C33.6634 136.261 34.1222 136.153 34.6307 136.153C35.142 136.153 35.5952 136.261 35.9901 136.477C36.3849 136.693 36.6946 136.984 36.919 137.351C37.1435 137.717 37.2557 138.125 37.2557 138.574C37.2557 138.895 37.1974 139.209 37.081 139.516C36.9673 139.82 36.7685 140.159 36.4844 140.534C36.2031 140.906 35.8125 141.361 35.3125 141.898L33.3523 143.994V144.062H37.4091V145H31.9034ZM41.8963 145.119C41.3963 145.119 40.946 145.02 40.5455 144.821C40.1449 144.622 39.8239 144.349 39.5824 144.003C39.3409 143.656 39.2088 143.261 39.1861 142.818H40.2088C40.2486 143.213 40.4276 143.54 40.7457 143.798C41.0668 144.054 41.4503 144.182 41.8963 144.182C42.2543 144.182 42.5724 144.098 42.8509 143.93C43.1321 143.763 43.3523 143.533 43.5114 143.24C43.6733 142.945 43.7543 142.611 43.7543 142.239C43.7543 141.858 43.6705 141.518 43.5028 141.22C43.3381 140.919 43.1108 140.682 42.821 140.509C42.5313 140.335 42.2003 140.247 41.8281 140.244C41.5611 140.241 41.2869 140.283 41.0057 140.368C40.7244 140.45 40.4929 140.557 40.3111 140.688L39.3224 140.568L39.8509 136.273H44.3849V137.21H40.7372L40.4304 139.784H40.4815C40.6605 139.642 40.8849 139.524 41.1548 139.43C41.4247 139.337 41.706 139.29 41.9986 139.29C42.5327 139.29 43.0085 139.418 43.4261 139.673C43.8466 139.926 44.1761 140.273 44.4148 140.713C44.6562 141.153 44.777 141.656 44.777 142.222C44.777 142.778 44.652 143.276 44.402 143.713C44.1548 144.148 43.8139 144.491 43.3793 144.744C42.9446 144.994 42.4503 145.119 41.8963 145.119ZM49.3164 145.119C48.6744 145.119 48.1275 144.945 47.6758 144.595C47.2241 144.243 46.8789 143.733 46.6403 143.065C46.4016 142.395 46.2823 141.585 46.2823 140.636C46.2823 139.693 46.4016 138.888 46.6403 138.22C46.8817 137.55 47.2283 137.038 47.68 136.686C48.1346 136.331 48.68 136.153 49.3164 136.153C49.9528 136.153 50.4968 136.331 50.9485 136.686C51.4031 137.038 51.7496 137.55 51.9883 138.22C52.2298 138.888 52.3505 139.693 52.3505 140.636C52.3505 141.585 52.2312 142.395 51.9925 143.065C51.7539 143.733 51.4087 144.243 50.957 144.595C50.5053 144.945 49.9585 145.119 49.3164 145.119ZM49.3164 144.182C49.9528 144.182 50.4471 143.875 50.7994 143.261C51.1516 142.648 51.3278 141.773 51.3278 140.636C51.3278 139.881 51.2468 139.237 51.0849 138.706C50.9258 138.175 50.6957 137.77 50.3945 137.491C50.0962 137.213 49.7369 137.074 49.3164 137.074C48.6857 137.074 48.1928 137.385 47.8377 138.007C47.4826 138.626 47.305 139.503 47.305 140.636C47.305 141.392 47.3846 142.034 47.5437 142.562C47.7028 143.091 47.9315 143.493 48.2298 143.768C48.5309 144.044 48.8931 144.182 49.3164 144.182Z" fill="black"/>
<path d="M59 105H65" stroke="black"/>
<path d="M34.6307 105.119C34.1307 105.119 33.6804 105.02 33.2798 104.821C32.8793 104.622 32.5582 104.349 32.3168 104.003C32.0753 103.656 31.9432 103.261 31.9205 102.818H32.9432C32.983 103.213 33.1619 103.54 33.4801 103.798C33.8011 104.054 34.1847 104.182 34.6307 104.182C34.9886 104.182 35.3068 104.098 35.5852 103.93C35.8665 103.763 36.0866 103.533 36.2457 103.24C36.4077 102.945 36.4886 102.611 36.4886 102.239C36.4886 101.858 36.4048 101.518 36.2372 101.22C36.0724 100.919 35.8452 100.682 35.5554 100.509C35.2656 100.335 34.9347 100.247 34.5625 100.244C34.2955 100.241 34.0213 100.283 33.7401 100.368C33.4588 100.45 33.2273 100.557 33.0455 100.688L32.0568 100.568L32.5852 96.2727H37.1193V97.2102H33.4716L33.1648 99.7841H33.2159C33.3949 99.642 33.6193 99.5241 33.8892 99.4304C34.1591 99.3366 34.4403 99.2898 34.733 99.2898C35.267 99.2898 35.7429 99.4176 36.1605 99.6733C36.581 99.9261 36.9105 100.273 37.1491 100.713C37.3906 101.153 37.5114 101.656 37.5114 102.222C37.5114 102.778 37.3864 103.276 37.1364 103.713C36.8892 104.148 36.5483 104.491 36.1136 104.744C35.679 104.994 35.1847 105.119 34.6307 105.119ZM42.0508 105.119C41.4087 105.119 40.8619 104.945 40.4102 104.595C39.9585 104.243 39.6133 103.733 39.3746 103.065C39.136 102.395 39.0167 101.585 39.0167 100.636C39.0167 99.6932 39.136 98.8878 39.3746 98.2202C39.6161 97.5497 39.9627 97.0384 40.4144 96.6861C40.869 96.331 41.4144 96.1534 42.0508 96.1534C42.6871 96.1534 43.2312 96.331 43.6829 96.6861C44.1374 97.0384 44.484 97.5497 44.7227 98.2202C44.9641 98.8878 45.0849 99.6932 45.0849 100.636C45.0849 101.585 44.9656 102.395 44.7269 103.065C44.4883 103.733 44.1431 104.243 43.6914 104.595C43.2397 104.945 42.6928 105.119 42.0508 105.119ZM42.0508 104.182C42.6871 104.182 43.1815 103.875 43.5337 103.261C43.886 102.648 44.0621 101.773 44.0621 100.636C44.0621 99.8807 43.9812 99.2372 43.8192 98.706C43.6602 98.1747 43.43 97.7699 43.1289 97.4915C42.8306 97.2131 42.4712 97.0739 42.0508 97.0739C41.4201 97.0739 40.9272 97.3849 40.5721 98.0071C40.217 98.6264 40.0394 99.5028 40.0394 100.636C40.0394 101.392 40.119 102.034 40.2781 102.562C40.4371 103.091 40.6658 103.493 40.9641 103.768C41.2653 104.044 41.6275 104.182 42.0508 104.182ZM49.5508 105.119C48.9087 105.119 48.3619 104.945 47.9102 104.595C47.4585 104.243 47.1133 103.733 46.8746 103.065C46.636 102.395 46.5167 101.585 46.5167 100.636C46.5167 99.6932 46.636 98.8878 46.8746 98.2202C47.1161 97.5497 47.4627 97.0384 47.9144 96.6861C48.369 96.331 48.9144 96.1534 49.5508 96.1534C50.1871 96.1534 50.7312 96.331 51.1829 96.6861C51.6374 97.0384 51.984 97.5497 52.2227 98.2202C52.4641 98.8878 52.5849 99.6932 52.5849 100.636C52.5849 101.585 52.4656 102.395 52.2269 103.065C51.9883 103.733 51.6431 104.243 51.1914 104.595C50.7397 104.945 50.1928 105.119 49.5508 105.119ZM49.5508 104.182C50.1871 104.182 50.6815 103.875 51.0337 103.261C51.386 102.648 51.5621 101.773 51.5621 100.636C51.5621 99.8807 51.4812 99.2372 51.3192 98.706C51.1602 98.1747 50.93 97.7699 50.6289 97.4915C50.3306 97.2131 49.9712 97.0739 49.5508 97.0739C48.9201 97.0739 48.4272 97.3849 48.0721 98.0071C47.717 98.6264 47.5394 99.5028 47.5394 100.636C47.5394 101.392 47.619 102.034 47.7781 102.562C47.9371 103.091 48.1658 103.493 48.4641 103.768C48.7653 104.044 49.1275 104.182 49.5508 104.182Z" fill="black"/>
<path d="M59 65H65" stroke="black"/>
<path d="M33.1761 65L37.0795 57.2784V57.2102H32.5795V56.2727H38.1705V57.2614L34.2841 65H33.1761ZM42.369 65.1193C41.869 65.1193 41.4187 65.0199 41.0181 64.821C40.6175 64.6222 40.2965 64.3494 40.055 64.0028C39.8136 63.6562 39.6815 63.2614 39.6587 62.8182H40.6815C40.7212 63.2131 40.9002 63.5398 41.2184 63.7983C41.5394 64.054 41.9229 64.1818 42.369 64.1818C42.7269 64.1818 43.0451 64.098 43.3235 63.9304C43.6048 63.7628 43.8249 63.5327 43.984 63.2401C44.146 62.9446 44.2269 62.6108 44.2269 62.2386C44.2269 61.858 44.1431 61.5185 43.9755 61.2202C43.8107 60.919 43.5835 60.6818 43.2937 60.5085C43.0039 60.3352 42.6729 60.2472 42.3008 60.2443C42.0337 60.2415 41.7596 60.2827 41.4783 60.3679C41.1971 60.4503 40.9656 60.5568 40.7837 60.6875L39.7951 60.5682L40.3235 56.2727H44.8576V57.2102H41.2099L40.9031 59.7841H40.9542C41.1332 59.642 41.3576 59.5241 41.6275 59.4304C41.8974 59.3366 42.1786 59.2898 42.4712 59.2898C43.0053 59.2898 43.4812 59.4176 43.8988 59.6733C44.3192 59.9261 44.6488 60.2727 44.8874 60.7131C45.1289 61.1534 45.2496 61.6562 45.2496 62.2216C45.2496 62.7784 45.1246 63.2756 44.8746 63.7131C44.6275 64.1477 44.2866 64.4915 43.8519 64.7443C43.4173 64.9943 42.9229 65.1193 42.369 65.1193ZM49.7891 65.1193C49.147 65.1193 48.6001 64.9446 48.1484 64.5952C47.6967 64.2429 47.3516 63.733 47.1129 63.0653C46.8743 62.3949 46.755 61.5852 46.755 60.6364C46.755 59.6932 46.8743 58.8878 47.1129 58.2202C47.3544 57.5497 47.701 57.0384 48.1527 56.6861C48.6072 56.331 49.1527 56.1534 49.7891 56.1534C50.4254 56.1534 50.9695 56.331 51.4212 56.6861C51.8757 57.0384 52.2223 57.5497 52.4609 58.2202C52.7024 58.8878 52.8232 59.6932 52.8232 60.6364C52.8232 61.5852 52.7038 62.3949 52.4652 63.0653C52.2266 63.733 51.8814 64.2429 51.4297 64.5952C50.978 64.9446 50.4311 65.1193 49.7891 65.1193ZM49.7891 64.1818C50.4254 64.1818 50.9197 63.875 51.272 63.2614C51.6243 62.6477 51.8004 61.7727 51.8004 60.6364C51.8004 59.8807 51.7195 59.2372 51.5575 58.706C51.3984 58.1747 51.1683 57.7699 50.8672 57.4915C50.5689 57.2131 50.2095 57.0739 49.7891 57.0739C49.1584 57.0739 48.6655 57.3849 48.3104 58.0071C47.9553 58.6264 47.7777 59.5028 47.7777 60.6364C47.7777 61.392 47.8572 62.0341 48.0163 62.5625C48.1754 63.0909 48.4041 63.4929 48.7024 63.7685C49.0036 64.044 49.3658 64.1818 49.7891 64.1818Z" fill="black"/>
<path d="M59 25H65" stroke="black"/>
<path d="M28.9716 20.4719V29.1992H27.9148V21.5799H27.8636L25.733 22.9947V21.9208L27.9148 20.4719H28.9716ZM34.3281 29.3185C33.6861 29.3185 33.1392 29.1438 32.6875 28.7944C32.2358 28.4421 31.8906 27.9322 31.652 27.2646C31.4134 26.5941 31.294 25.7844 31.294 24.8356C31.294 23.8924 31.4134 23.087 31.652 22.4194C31.8935 21.7489 32.2401 21.2376 32.6918 20.8853C33.1463 20.5302 33.6918 20.3526 34.3281 20.3526C34.9645 20.3526 35.5085 20.5302 35.9602 20.8853C36.4148 21.2376 36.7614 21.7489 37 22.4194C37.2415 23.087 37.3622 23.8924 37.3622 24.8356C37.3622 25.7844 37.2429 26.5941 37.0043 27.2646C36.7656 27.9322 36.4205 28.4421 35.9688 28.7944C35.517 29.1438 34.9702 29.3185 34.3281 29.3185ZM34.3281 28.381C34.9645 28.381 35.4588 28.0742 35.8111 27.4606C36.1634 26.8469 36.3395 25.9719 36.3395 24.8356C36.3395 24.0799 36.2585 23.4364 36.0966 22.9052C35.9375 22.3739 35.7074 21.9691 35.4062 21.6907C35.108 21.4123 34.7486 21.2731 34.3281 21.2731C33.6974 21.2731 33.2045 21.5842 32.8494 22.2063C32.4943 22.8256 32.3168 23.7021 32.3168 24.8356C32.3168 25.5913 32.3963 26.2333 32.5554 26.7617C32.7145 27.2901 32.9432 27.6921 33.2415 27.9677C33.5426 28.2433 33.9048 28.381 34.3281 28.381ZM41.8281 29.3185C41.1861 29.3185 40.6392 29.1438 40.1875 28.7944C39.7358 28.4421 39.3906 27.9322 39.152 27.2646C38.9134 26.5941 38.794 25.7844 38.794 24.8356C38.794 23.8924 38.9134 23.087 39.152 22.4194C39.3935 21.7489 39.7401 21.2376 40.1918 20.8853C40.6463 20.5302 41.1918 20.3526 41.8281 20.3526C42.4645 20.3526 43.0085 20.5302 43.4602 20.8853C43.9148 21.2376 44.2614 21.7489 44.5 22.4194C44.7415 23.087 44.8622 23.8924 44.8622 24.8356C44.8622 25.7844 44.7429 26.5941 44.5043 27.2646C44.2656 27.9322 43.9205 28.4421 43.4688 28.7944C43.017 29.1438 42.4702 29.3185 41.8281 29.3185ZM41.8281 28.381C42.4645 28.381 42.9588 28.0742 43.3111 27.4606C43.6634 26.8469 43.8395 25.9719 43.8395 24.8356C43.8395 24.0799 43.7585 23.4364 43.5966 22.9052C43.4375 22.3739 43.2074 21.9691 42.9062 21.6907C42.608 21.4123 42.2486 21.2731 41.8281 21.2731C41.1974 21.2731 40.7045 21.5842 40.3494 22.2063C39.9943 22.8256 39.8168 23.7021 39.8168 24.8356C39.8168 25.5913 39.8963 26.2333 40.0554 26.7617C40.2145 27.2901 40.4432 27.6921 40.7415 27.9677C41.0426 28.2433 41.4048 28.381 41.8281 28.381ZM49.3281 29.3185C48.6861 29.3185 48.1392 29.1438 47.6875 28.7944C47.2358 28.4421 46.8906 27.9322 46.652 27.2646C46.4134 26.5941 46.294 25.7844 46.294 24.8356C46.294 23.8924 46.4134 23.087 46.652 22.4194C46.8935 21.7489 47.2401 21.2376 47.6918 20.8853C48.1463 20.5302 48.6918 20.3526 49.3281 20.3526C49.9645 20.3526 50.5085 20.5302 50.9602 20.8853C51.4148 21.2376 51.7614 21.7489 52 22.4194C52.2415 23.087 52.3622 23.8924 52.3622 24.8356C52.3622 25.7844 52.2429 26.5941 52.0043 27.2646C51.7656 27.9322 51.4205 28.4421 50.9688 28.7944C50.517 29.1438 49.9702 29.3185 49.3281 29.3185ZM49.3281 28.381C49.9645 28.381 50.4588 28.0742 50.8111 27.4606C51.1634 26.8469 51.3395 25.9719 51.3395 24.8356C51.3395 24.0799 51.2585 23.4364 51.0966 22.9052C50.9375 22.3739 50.7074 21.9691 50.4062 21.6907C50.108 21.4123 49.7486 21.2731 49.3281 21.2731C48.6974 21.2731 48.2045 21.5842 47.8494 22.2063C47.4943 22.8256 47.3168 23.7021 47.3168 24.8356C47.3168 25.5913 47.3963 26.2333 47.5554 26.7617C47.7145 27.2901 47.9432 27.6921 48.2415 27.9677C48.5426 28.2433 48.9048 28.381 49.3281 28.381Z" fill="black"/>
<path d="M65 79.08L214.5 76.04L364 59.4L513.5 111.72L663 38.76" stroke="#3CCE68"/>
<path d="M65 50.6L214.5 125.8L364 148.2L513.5 90.44L663 120.36" stroke="#F6557D"/>
<circle cx="121" cy="78" r="5" fill="#CABA27"/>
<circle cx="486" cy="101" r="5" fill="black"/>
<line x1="120.5" y1="73" x2="120.5" y2="27" stroke="#CABA27"/>
<line x1="485.5" y1="100" x2="485.5" y2="54" stroke="black"/>
<path d="M456.058 44H449.612V25.8182H456.111C457.94 25.8182 459.514 26.1822 460.834 26.9102C462.154 27.6322 463.169 28.6709 463.879 30.0263C464.595 31.3816 464.953 33.0033 464.953 34.8913C464.953 36.7853 464.595 38.4129 463.879 39.7741C463.169 41.1354 462.148 42.18 460.816 42.908C459.491 43.636 457.904 44 456.058 44ZM453.457 40.7063H455.898C457.034 40.7063 457.99 40.5051 458.766 40.1026C459.547 39.6942 460.133 39.0639 460.523 38.2116C460.92 37.3535 461.118 36.2467 461.118 34.8913C461.118 33.5478 460.92 32.4499 460.523 31.5977C460.133 30.7454 459.55 30.118 458.774 29.7156C457.999 29.3131 457.043 29.1119 455.907 29.1119H453.457V40.7063ZM473.944 44.2663C472.542 44.2663 471.334 43.9822 470.322 43.4141C469.316 42.84 468.541 42.0291 467.996 40.9815C467.452 39.928 467.18 38.6822 467.18 37.244C467.18 35.8413 467.452 34.6102 467.996 33.5508C468.541 32.4914 469.307 31.6657 470.296 31.0739C471.29 30.482 472.456 30.1861 473.794 30.1861C474.693 30.1861 475.531 30.3311 476.306 30.6211C477.087 30.9052 477.768 31.3343 478.348 31.9084C478.934 32.4825 479.39 33.2045 479.715 34.0746C480.041 34.9387 480.203 35.9508 480.203 37.1108V38.1495H468.689V35.8058H476.643C476.643 35.2612 476.525 34.7789 476.288 34.3587C476.051 33.9384 475.723 33.61 475.303 33.3732C474.888 33.1306 474.406 33.0092 473.856 33.0092C473.282 33.0092 472.773 33.1424 472.329 33.4087C471.891 33.6692 471.547 34.0213 471.299 34.4652C471.05 34.9032 470.923 35.3915 470.917 35.93V38.1584C470.917 38.8331 471.041 39.4161 471.29 39.9073C471.544 40.3986 471.903 40.7773 472.364 41.0437C472.826 41.31 473.373 41.4432 474.007 41.4432C474.427 41.4432 474.811 41.384 475.161 41.2656C475.51 41.1473 475.809 40.9697 476.057 40.733C476.306 40.4962 476.495 40.2062 476.626 39.8629L480.123 40.0938C479.946 40.9342 479.582 41.6681 479.031 42.2955C478.487 42.9169 477.783 43.4022 476.919 43.7514C476.06 44.0947 475.069 44.2663 473.944 44.2663ZM486.56 44.2575C485.69 44.2575 484.914 44.1065 484.234 43.8047C483.553 43.4969 483.015 43.0442 482.618 42.4464C482.227 41.8427 482.032 41.091 482.032 40.1914C482.032 39.4338 482.171 38.7976 482.449 38.2827C482.728 37.7678 483.106 37.3535 483.586 37.0398C484.065 36.7261 484.61 36.4893 485.219 36.3295C485.835 36.1697 486.48 36.0573 487.155 35.9922C487.948 35.9093 488.587 35.8324 489.072 35.7614C489.558 35.6844 489.91 35.572 490.129 35.424C490.348 35.276 490.457 35.0571 490.457 34.767V34.7138C490.457 34.1515 490.28 33.7165 489.925 33.4087C489.575 33.101 489.078 32.9471 488.433 32.9471C487.752 32.9471 487.211 33.098 486.808 33.3999C486.406 33.6958 486.14 34.0687 486.009 34.5185L482.512 34.2344C482.689 33.4058 483.038 32.6896 483.559 32.0859C484.08 31.4763 484.752 31.0088 485.574 30.6832C486.403 30.3518 487.362 30.1861 488.451 30.1861C489.208 30.1861 489.933 30.2749 490.626 30.4524C491.324 30.63 491.943 30.9052 492.481 31.2781C493.026 31.6509 493.455 32.1303 493.769 32.7163C494.082 33.2963 494.239 33.9917 494.239 34.8026V44H490.653V42.109H490.546C490.327 42.5352 490.034 42.911 489.667 43.2365C489.3 43.5561 488.859 43.8076 488.344 43.9911C487.829 44.1687 487.235 44.2575 486.56 44.2575ZM487.643 41.6474C488.199 41.6474 488.691 41.5379 489.117 41.3189C489.543 41.094 489.877 40.7921 490.12 40.4134C490.363 40.0346 490.484 39.6055 490.484 39.1261V37.679C490.365 37.7559 490.203 37.8269 489.996 37.892C489.794 37.9512 489.566 38.0075 489.312 38.0607C489.057 38.1081 488.803 38.1525 488.548 38.1939C488.294 38.2294 488.063 38.262 487.856 38.2915C487.412 38.3567 487.024 38.4602 486.693 38.6023C486.362 38.7443 486.104 38.9367 485.921 39.1793C485.737 39.4161 485.645 39.712 485.645 40.0671C485.645 40.582 485.832 40.9756 486.205 41.2479C486.584 41.5142 487.063 41.6474 487.643 41.6474ZM504.426 30.3636V33.2045H496.214V30.3636H504.426ZM498.079 27.0966H501.861V39.8097C501.861 40.1589 501.914 40.4311 502.021 40.6264C502.127 40.8158 502.275 40.949 502.464 41.0259C502.66 41.1029 502.885 41.1413 503.139 41.1413C503.317 41.1413 503.494 41.1265 503.672 41.0969C503.849 41.0614 503.986 41.0348 504.08 41.017L504.675 43.8313C504.486 43.8905 504.219 43.9586 503.876 44.0355C503.533 44.1184 503.116 44.1687 502.624 44.1864C501.713 44.2219 500.914 44.1006 500.227 43.8224C499.547 43.5443 499.017 43.1122 498.638 42.5263C498.259 41.9403 498.073 41.2005 498.079 40.3068V27.0966ZM510.965 36.1165V44H507.183V25.8182H510.858V32.7695H511.018C511.326 31.9646 511.823 31.3343 512.51 30.8786C513.196 30.4169 514.057 30.1861 515.093 30.1861C516.04 30.1861 516.866 30.3932 517.57 30.8075C518.28 31.2159 518.831 31.8048 519.221 32.5742C519.618 33.3377 519.813 34.2521 519.807 35.3175V44H516.025V35.9922C516.031 35.1518 515.818 34.4978 515.386 34.0302C514.96 33.5626 514.362 33.3288 513.593 33.3288C513.078 33.3288 512.622 33.4383 512.226 33.6573C511.835 33.8763 511.527 34.1959 511.302 34.6161C511.083 35.0304 510.971 35.5305 510.965 36.1165ZM544.683 32.1836H540.795C540.724 31.6805 540.579 31.2337 540.36 30.843C540.141 30.4465 539.859 30.1091 539.516 29.831C539.173 29.5528 538.776 29.3397 538.327 29.1918C537.883 29.0438 537.4 28.9698 536.879 28.9698C535.938 28.9698 535.119 29.2036 534.42 29.6712C533.722 30.1328 533.18 30.8075 532.796 31.6953C532.411 32.5772 532.219 33.6484 532.219 34.9091C532.219 36.2053 532.411 37.2943 532.796 38.1761C533.186 39.058 533.731 39.7238 534.429 40.1737C535.128 40.6235 535.935 40.8484 536.853 40.8484C537.368 40.8484 537.844 40.7803 538.282 40.6442C538.726 40.508 539.12 40.3098 539.463 40.0494C539.806 39.783 540.09 39.4605 540.315 39.0817C540.546 38.7029 540.706 38.2708 540.795 37.7855L544.683 37.8033C544.582 38.6378 544.331 39.4427 543.928 40.218C543.532 40.9875 542.996 41.677 542.322 42.2866C541.653 42.8903 540.854 43.3697 539.925 43.7248C539.001 44.074 537.957 44.2486 536.791 44.2486C535.169 44.2486 533.719 43.8816 532.441 43.1477C531.168 42.4138 530.162 41.3514 529.422 39.9606C528.688 38.5697 528.321 36.8859 528.321 34.9091C528.321 32.9264 528.694 31.2396 529.44 29.8487C530.186 28.4579 531.198 27.3984 532.476 26.6705C533.754 25.9366 535.193 25.5696 536.791 25.5696C537.844 25.5696 538.821 25.7176 539.72 26.0135C540.626 26.3094 541.428 26.7415 542.126 27.3097C542.825 27.8719 543.393 28.5614 543.831 29.3782C544.275 30.195 544.559 31.1301 544.683 32.1836ZM547.369 44V30.3636H551.035V32.7429H551.177C551.426 31.8965 551.843 31.2573 552.429 30.8253C553.015 30.3873 553.69 30.1683 554.453 30.1683C554.643 30.1683 554.847 30.1802 555.066 30.2038C555.285 30.2275 555.477 30.2601 555.643 30.3015V33.6573C555.465 33.604 555.22 33.5567 554.906 33.5153C554.592 33.4738 554.305 33.4531 554.045 33.4531C553.488 33.4531 552.991 33.5745 552.553 33.8171C552.121 34.0539 551.778 34.3853 551.523 34.8114C551.275 35.2376 551.151 35.7288 551.151 36.2852V44H547.369ZM563.125 44.2663C561.746 44.2663 560.553 43.9734 559.547 43.3874C558.547 42.7956 557.774 41.9729 557.23 40.9194C556.685 39.86 556.413 38.6319 556.413 37.2351C556.413 35.8265 556.685 34.5954 557.23 33.5419C557.774 32.4825 558.547 31.6598 559.547 31.0739C560.553 30.482 561.746 30.1861 563.125 30.1861C564.504 30.1861 565.693 30.482 566.693 31.0739C567.7 31.6598 568.475 32.4825 569.019 33.5419C569.564 34.5954 569.836 35.8265 569.836 37.2351C569.836 38.6319 569.564 39.86 569.019 40.9194C568.475 41.9729 567.7 42.7956 566.693 43.3874C565.693 43.9734 564.504 44.2663 563.125 44.2663ZM563.142 41.3366C563.77 41.3366 564.293 41.1591 564.714 40.804C565.134 40.4429 565.451 39.9517 565.664 39.3303C565.883 38.7088 565.992 38.0015 565.992 37.2085C565.992 36.4154 565.883 35.7081 565.664 35.0866C565.451 34.4652 565.134 33.974 564.714 33.6129C564.293 33.2519 563.77 33.0714 563.142 33.0714C562.509 33.0714 561.976 33.2519 561.544 33.6129C561.118 33.974 560.796 34.4652 560.577 35.0866C560.364 35.7081 560.257 36.4154 560.257 37.2085C560.257 38.0015 560.364 38.7088 560.577 39.3303C560.796 39.9517 561.118 40.4429 561.544 40.804C561.976 41.1591 562.509 41.3366 563.142 41.3366ZM583.641 34.2521L580.179 34.4652C580.12 34.1693 579.992 33.9029 579.797 33.6662C579.602 33.4235 579.344 33.2312 579.025 33.0891C578.711 32.9412 578.335 32.8672 577.897 32.8672C577.311 32.8672 576.817 32.9915 576.415 33.2401C576.012 33.4827 575.811 33.8082 575.811 34.2166C575.811 34.5421 575.941 34.8174 576.202 35.0423C576.462 35.2672 576.909 35.4477 577.542 35.5838L580.01 36.081C581.336 36.3532 582.324 36.7912 582.975 37.3949C583.626 37.9986 583.952 38.7917 583.952 39.7741C583.952 40.6679 583.689 41.4521 583.162 42.1268C582.641 42.8015 581.925 43.3282 581.013 43.707C580.108 44.0799 579.063 44.2663 577.88 44.2663C576.074 44.2663 574.636 43.8905 573.565 43.1388C572.5 42.3813 571.875 41.3514 571.692 40.0494L575.411 39.854C575.524 40.4045 575.796 40.8247 576.228 41.1147C576.66 41.3988 577.214 41.5408 577.888 41.5408C578.551 41.5408 579.084 41.4136 579.486 41.1591C579.895 40.8987 580.102 40.5643 580.108 40.1559C580.102 39.8126 579.957 39.5315 579.673 39.3125C579.389 39.0876 578.951 38.916 578.359 38.7976L575.997 38.3271C574.666 38.0607 573.674 37.5991 573.023 36.9421C572.378 36.2852 572.056 35.4477 572.056 34.4297C572.056 33.5537 572.292 32.7991 572.766 32.1658C573.245 31.5326 573.917 31.0443 574.781 30.701C575.651 30.3577 576.669 30.1861 577.835 30.1861C579.557 30.1861 580.913 30.5501 581.901 31.2781C582.896 32.006 583.476 32.9974 583.641 34.2521ZM597.679 34.2521L594.217 34.4652C594.158 34.1693 594.031 33.9029 593.835 33.6662C593.64 33.4235 593.382 33.2312 593.063 33.0891C592.749 32.9412 592.373 32.8672 591.935 32.8672C591.349 32.8672 590.855 32.9915 590.453 33.2401C590.05 33.4827 589.849 33.8082 589.849 34.2166C589.849 34.5421 589.979 34.8174 590.24 35.0423C590.5 35.2672 590.947 35.4477 591.58 35.5838L594.048 36.081C595.374 36.3532 596.362 36.7912 597.013 37.3949C597.665 37.9986 597.99 38.7917 597.99 39.7741C597.99 40.6679 597.727 41.4521 597.2 42.1268C596.679 42.8015 595.963 43.3282 595.051 43.707C594.146 44.0799 593.101 44.2663 591.918 44.2663C590.112 44.2663 588.674 43.8905 587.603 43.1388C586.538 42.3813 585.913 41.3514 585.73 40.0494L589.45 39.854C589.562 40.4045 589.834 40.8247 590.266 41.1147C590.698 41.3988 591.252 41.5408 591.926 41.5408C592.589 41.5408 593.122 41.4136 593.525 41.1591C593.933 40.8987 594.14 40.5643 594.146 40.1559C594.14 39.8126 593.995 39.5315 593.711 39.3125C593.427 39.0876 592.989 38.916 592.397 38.7976L590.036 38.3271C588.704 38.0607 587.712 37.5991 587.061 36.9421C586.416 36.2852 586.094 35.4477 586.094 34.4297C586.094 33.5537 586.33 32.7991 586.804 32.1658C587.283 31.5326 587.955 31.0443 588.819 30.701C589.689 30.3577 590.707 30.1861 591.873 30.1861C593.596 30.1861 594.951 30.5501 595.939 31.2781C596.934 32.006 597.514 32.9974 597.679 34.2521ZM604.89 25.8182L604.544 38.549H601.295L600.94 25.8182H604.89ZM602.919 44.2308C602.334 44.2308 601.83 44.0237 601.41 43.6094C600.99 43.1892 600.783 42.6861 600.789 42.1001C600.783 41.5201 600.99 41.023 601.41 40.6087C601.83 40.1944 602.334 39.9872 602.919 39.9872C603.482 39.9872 603.976 40.1944 604.402 40.6087C604.828 41.023 605.044 41.5201 605.05 42.1001C605.044 42.4908 604.941 42.8488 604.739 43.1744C604.544 43.494 604.287 43.7514 603.967 43.9467C603.647 44.1361 603.298 44.2308 602.919 44.2308Z" fill="black"/>
</g>
<path d="M91.0153 11.6953C90.891 11.2633 90.7164 10.8815 90.4915 10.5501C90.2666 10.2127 89.9914 9.92862 89.6658 9.6978C89.3462 9.46106 88.9793 9.28054 88.565 9.15625C88.1566 9.03196 87.7038 8.96982 87.2067 8.96982C86.2775 8.96982 85.4607 9.20064 84.7564 9.66229C84.058 10.1239 83.5135 10.7957 83.1229 11.6776C82.7322 12.5535 82.5369 13.6248 82.5369 14.8913C82.5369 16.1579 82.7293 17.2351 83.114 18.1229C83.4987 19.0107 84.0432 19.6883 84.7475 20.1559C85.4518 20.6175 86.2834 20.8484 87.2422 20.8484C88.1122 20.8484 88.855 20.6945 89.4705 20.3867C90.092 20.073 90.5655 19.6321 90.891 19.0639C91.2224 18.4957 91.3881 17.824 91.3881 17.0487L92.1694 17.1641H87.4819V14.2699H95.0902V16.5604C95.0902 18.1584 94.7528 19.5315 94.0781 20.6797C93.4034 21.822 92.4742 22.7038 91.2905 23.3253C90.1068 23.9408 88.7514 24.2486 87.2244 24.2486C85.5199 24.2486 84.0225 23.8728 82.7322 23.1211C81.442 22.3635 80.4358 21.2893 79.7138 19.8984C78.9976 18.5017 78.6396 16.8445 78.6396 14.9268C78.6396 13.4531 78.8526 12.1392 79.2788 10.9851C79.7108 9.82505 80.3145 8.84257 81.0898 8.03764C81.8652 7.23272 82.7678 6.62015 83.7976 6.19993C84.8274 5.77971 85.9431 5.5696 87.1445 5.5696C88.1744 5.5696 89.1332 5.72053 90.021 6.02237C90.9087 6.3183 91.6959 6.73852 92.3825 7.28303C93.0749 7.82753 93.6402 8.47561 94.0781 9.22727C94.5161 9.97301 94.7972 10.7957 94.9215 11.6953H91.0153ZM104.068 24.2663C102.689 24.2663 101.496 23.9734 100.49 23.3874C99.4899 22.7956 98.7175 21.9729 98.173 20.9194C97.6285 19.86 97.3563 18.6319 97.3563 17.2351C97.3563 15.8265 97.6285 14.5954 98.173 13.5419C98.7175 12.4825 99.4899 11.6598 100.49 11.0739C101.496 10.482 102.689 10.1861 104.068 10.1861C105.447 10.1861 106.637 10.482 107.637 11.0739C108.643 11.6598 109.418 12.4825 109.963 13.5419C110.507 14.5954 110.78 15.8265 110.78 17.2351C110.78 18.6319 110.507 19.86 109.963 20.9194C109.418 21.9729 108.643 22.7956 107.637 23.3874C106.637 23.9734 105.447 24.2663 104.068 24.2663ZM104.086 21.3366C104.713 21.3366 105.237 21.1591 105.657 20.804C106.077 20.4429 106.394 19.9517 106.607 19.3303C106.826 18.7088 106.935 18.0015 106.935 17.2085C106.935 16.4154 106.826 15.7081 106.607 15.0866C106.394 14.4652 106.077 13.974 105.657 13.6129C105.237 13.2519 104.713 13.0714 104.086 13.0714C103.452 13.0714 102.92 13.2519 102.488 13.6129C102.062 13.974 101.739 14.4652 101.52 15.0866C101.307 15.7081 101.2 16.4154 101.2 17.2085C101.2 18.0015 101.307 18.7088 101.52 19.3303C101.739 19.9517 102.062 20.4429 102.488 20.804C102.92 21.1591 103.452 21.3366 104.086 21.3366ZM117.021 5.81818V24H113.239V5.81818H117.021ZM125.075 24.2219C124.039 24.2219 123.101 23.9556 122.261 23.4229C121.426 22.8844 120.763 22.0942 120.272 21.0526C119.787 20.005 119.544 18.7206 119.544 17.1996C119.544 15.6371 119.796 14.3379 120.299 13.3022C120.802 12.2605 121.471 11.4822 122.305 10.9673C123.146 10.4465 124.066 10.1861 125.066 10.1861C125.83 10.1861 126.466 10.3163 126.975 10.5767C127.49 10.8312 127.904 11.1508 128.218 11.5355C128.537 11.9143 128.78 12.2872 128.946 12.6541H129.061V5.81818H132.834V24H129.106V21.8161H128.946C128.768 22.1948 128.517 22.5707 128.191 22.9435C127.872 23.3105 127.454 23.6153 126.939 23.858C126.43 24.1006 125.809 24.2219 125.075 24.2219ZM126.274 21.2124C126.883 21.2124 127.398 21.0466 127.818 20.7152C128.244 20.3778 128.57 19.9073 128.795 19.3036C129.026 18.6999 129.141 17.9927 129.141 17.1818C129.141 16.371 129.029 15.6667 128.804 15.0689C128.579 14.4711 128.253 14.0095 127.827 13.6839C127.401 13.3584 126.883 13.1957 126.274 13.1957C125.652 13.1957 125.128 13.3643 124.702 13.7017C124.276 14.0391 123.954 14.5066 123.735 15.1044C123.516 15.7022 123.406 16.3946 123.406 17.1818C123.406 17.9749 123.516 18.6763 123.735 19.2859C123.959 19.8896 124.282 20.363 124.702 20.7063C125.128 21.0437 125.652 21.2124 126.274 21.2124ZM142.158 24.2663C140.756 24.2663 139.548 23.9822 138.536 23.4141C137.53 22.84 136.755 22.0291 136.21 20.9815C135.666 19.928 135.393 18.6822 135.393 17.244C135.393 15.8413 135.666 14.6102 136.21 13.5508C136.755 12.4914 137.521 11.6657 138.509 11.0739C139.504 10.482 140.67 10.1861 142.007 10.1861C142.907 10.1861 143.744 10.3311 144.52 10.6211C145.301 10.9052 145.982 11.3343 146.562 11.9084C147.148 12.4825 147.603 13.2045 147.929 14.0746C148.254 14.9387 148.417 15.9508 148.417 17.1108V18.1495H136.903V15.8058H144.857C144.857 15.2612 144.739 14.7789 144.502 14.3587C144.265 13.9384 143.937 13.61 143.517 13.3732C143.102 13.1306 142.62 13.0092 142.07 13.0092C141.495 13.0092 140.986 13.1424 140.543 13.4087C140.105 13.6692 139.761 14.0213 139.513 14.4652C139.264 14.9032 139.137 15.3915 139.131 15.93V18.1584C139.131 18.8331 139.255 19.4161 139.504 19.9073C139.758 20.3986 140.116 20.7773 140.578 21.0437C141.04 21.31 141.587 21.4432 142.22 21.4432C142.641 21.4432 143.025 21.384 143.375 21.2656C143.724 21.1473 144.023 20.9697 144.271 20.733C144.52 20.4962 144.709 20.2062 144.839 19.8629L148.337 20.0938C148.16 20.9342 147.796 21.6681 147.245 22.2955C146.701 22.9169 145.996 23.4022 145.132 23.7514C144.274 24.0947 143.283 24.2663 142.158 24.2663ZM154.667 16.1165V24H150.885V10.3636H154.49V12.7695H154.649C154.951 11.9764 155.457 11.3491 156.168 10.8874C156.878 10.4199 157.739 10.1861 158.751 10.1861C159.698 10.1861 160.524 10.3932 161.228 10.8075C161.932 11.2218 162.48 11.8137 162.87 12.5831C163.261 13.3466 163.456 14.258 163.456 15.3175V24H159.674V15.9922C159.68 15.1577 159.467 14.5066 159.035 14.0391C158.603 13.5656 158.008 13.3288 157.251 13.3288C156.742 13.3288 156.292 13.4383 155.901 13.6573C155.516 13.8763 155.215 14.1959 154.996 14.6161C154.783 15.0304 154.673 15.5305 154.667 16.1165ZM188.336 12.1836H184.448C184.377 11.6805 184.232 11.2337 184.013 10.843C183.794 10.4465 183.513 10.1091 183.169 9.83097C182.826 9.55279 182.43 9.33972 181.98 9.19176C181.536 9.0438 181.054 8.96982 180.533 8.96982C179.592 8.96982 178.772 9.2036 178.074 9.67116C177.375 10.1328 176.834 10.8075 176.449 11.6953C176.064 12.5772 175.872 13.6484 175.872 14.9091C175.872 16.2053 176.064 17.2943 176.449 18.1761C176.84 19.058 177.384 19.7238 178.082 20.1737C178.781 20.6235 179.589 20.8484 180.506 20.8484C181.021 20.8484 181.497 20.7803 181.935 20.6442C182.379 20.508 182.773 20.3098 183.116 20.0494C183.459 19.783 183.744 19.4605 183.968 19.0817C184.199 18.7029 184.359 18.2708 184.448 17.7855L188.336 17.8033C188.236 18.6378 187.984 19.4427 187.582 20.218C187.185 20.9875 186.65 21.677 185.975 22.2866C185.306 22.8903 184.507 23.3697 183.578 23.7248C182.655 24.074 181.61 24.2486 180.444 24.2486C178.822 24.2486 177.372 23.8816 176.094 23.1477C174.821 22.4138 173.815 21.3514 173.075 19.9606C172.341 18.5697 171.975 16.8859 171.975 14.9091C171.975 12.9264 172.347 11.2396 173.093 9.84872C173.839 8.45786 174.851 7.39844 176.129 6.67045C177.408 5.93655 178.846 5.5696 180.444 5.5696C181.497 5.5696 182.474 5.71757 183.374 6.01349C184.279 6.30942 185.081 6.74148 185.78 7.30966C186.478 7.87192 187.046 8.56143 187.484 9.3782C187.928 10.195 188.212 11.1301 188.336 12.1836ZM191.022 24V10.3636H194.688V12.7429H194.831C195.079 11.8965 195.496 11.2573 196.082 10.8253C196.668 10.3873 197.343 10.1683 198.106 10.1683C198.296 10.1683 198.5 10.1802 198.719 10.2038C198.938 10.2275 199.13 10.2601 199.296 10.3015V13.6573C199.119 13.604 198.873 13.5567 198.559 13.5153C198.246 13.4738 197.958 13.4531 197.698 13.4531C197.142 13.4531 196.645 13.5745 196.207 13.8171C195.775 14.0539 195.431 14.3853 195.177 14.8114C194.928 15.2376 194.804 15.7288 194.804 16.2852V24H191.022ZM206.778 24.2663C205.399 24.2663 204.206 23.9734 203.2 23.3874C202.2 22.7956 201.427 21.9729 200.883 20.9194C200.338 19.86 200.066 18.6319 200.066 17.2351C200.066 15.8265 200.338 14.5954 200.883 13.5419C201.427 12.4825 202.2 11.6598 203.2 11.0739C204.206 10.482 205.399 10.1861 206.778 10.1861C208.157 10.1861 209.347 10.482 210.347 11.0739C211.353 11.6598 212.128 12.4825 212.673 13.5419C213.217 14.5954 213.49 15.8265 213.49 17.2351C213.49 18.6319 213.217 19.86 212.673 20.9194C212.128 21.9729 211.353 22.7956 210.347 23.3874C209.347 23.9734 208.157 24.2663 206.778 24.2663ZM206.796 21.3366C207.423 21.3366 207.947 21.1591 208.367 20.804C208.787 20.4429 209.104 19.9517 209.317 19.3303C209.536 18.7088 209.645 18.0015 209.645 17.2085C209.645 16.4154 209.536 15.7081 209.317 15.0866C209.104 14.4652 208.787 13.974 208.367 13.6129C207.947 13.2519 207.423 13.0714 206.796 13.0714C206.162 13.0714 205.63 13.2519 205.198 13.6129C204.771 13.974 204.449 14.4652 204.23 15.0866C204.017 15.7081 203.91 16.4154 203.91 17.2085C203.91 18.0015 204.017 18.7088 204.23 19.3303C204.449 19.9517 204.771 20.4429 205.198 20.804C205.63 21.1591 206.162 21.3366 206.796 21.3366ZM227.295 14.2521L223.832 14.4652C223.773 14.1693 223.646 13.9029 223.45 13.6662C223.255 13.4235 222.998 13.2312 222.678 13.0891C222.364 12.9412 221.989 12.8672 221.551 12.8672C220.965 12.8672 220.47 12.9915 220.068 13.2401C219.666 13.4827 219.464 13.8082 219.464 14.2166C219.464 14.5421 219.595 14.8174 219.855 15.0423C220.115 15.2672 220.562 15.4477 221.195 15.5838L223.664 16.081C224.989 16.3532 225.978 16.7912 226.629 17.3949C227.28 17.9986 227.605 18.7917 227.605 19.7741C227.605 20.6679 227.342 21.4521 226.815 22.1268C226.294 22.8015 225.578 23.3282 224.667 23.707C223.761 24.0799 222.717 24.2663 221.533 24.2663C219.728 24.2663 218.289 23.8905 217.218 23.1388C216.153 22.3813 215.528 21.3514 215.345 20.0494L219.065 19.854C219.177 20.4045 219.45 20.8247 219.882 21.1147C220.314 21.3988 220.867 21.5408 221.542 21.5408C222.205 21.5408 222.737 21.4136 223.14 21.1591C223.548 20.8987 223.755 20.5643 223.761 20.1559C223.755 19.8126 223.61 19.5315 223.326 19.3125C223.042 19.0876 222.604 18.916 222.012 18.7976L219.651 18.3271C218.319 18.0607 217.328 17.5991 216.677 16.9421C216.032 16.2852 215.709 15.4477 215.709 14.4297C215.709 13.5537 215.946 12.7991 216.419 12.1658C216.899 11.5326 217.57 11.0443 218.434 10.701C219.305 10.3577 220.323 10.1861 221.488 10.1861C223.211 10.1861 224.566 10.5501 225.555 11.2781C226.549 12.006 227.129 12.9974 227.295 14.2521ZM241.333 14.2521L237.87 14.4652C237.811 14.1693 237.684 13.9029 237.489 13.6662C237.293 13.4235 237.036 13.2312 236.716 13.0891C236.402 12.9412 236.027 12.8672 235.589 12.8672C235.003 12.8672 234.509 12.9915 234.106 13.2401C233.704 13.4827 233.502 13.8082 233.502 14.2166C233.502 14.5421 233.633 14.8174 233.893 15.0423C234.153 15.2672 234.6 15.4477 235.234 15.5838L237.702 16.081C239.027 16.3532 240.016 16.7912 240.667 17.3949C241.318 17.9986 241.643 18.7917 241.643 19.7741C241.643 20.6679 241.38 21.4521 240.853 22.1268C240.332 22.8015 239.616 23.3282 238.705 23.707C237.799 24.0799 236.755 24.2663 235.571 24.2663C233.766 24.2663 232.328 23.8905 231.256 23.1388C230.191 22.3813 229.567 21.3514 229.383 20.0494L233.103 19.854C233.215 20.4045 233.488 20.8247 233.92 21.1147C234.352 21.3988 234.905 21.5408 235.58 21.5408C236.243 21.5408 236.775 21.4136 237.178 21.1591C237.586 20.8987 237.793 20.5643 237.799 20.1559C237.793 19.8126 237.648 19.5315 237.364 19.3125C237.08 19.0876 236.642 18.916 236.05 18.7976L233.689 18.3271C232.357 18.0607 231.366 17.5991 230.715 16.9421C230.07 16.2852 229.747 15.4477 229.747 14.4297C229.747 13.5537 229.984 12.7991 230.457 12.1658C230.937 11.5326 231.608 11.0443 232.473 10.701C233.343 10.3577 234.361 10.1861 235.527 10.1861C237.249 10.1861 238.604 10.5501 239.593 11.2781C240.587 12.006 241.167 12.9974 241.333 14.2521ZM248.544 5.81818L248.197 18.549H244.948L244.593 5.81818H248.544ZM246.573 24.2308C245.987 24.2308 245.484 24.0237 245.064 23.6094C244.643 23.1892 244.436 22.6861 244.442 22.1001C244.436 21.5201 244.643 21.023 245.064 20.6087C245.484 20.1944 245.987 19.9872 246.573 19.9872C247.135 19.9872 247.629 20.1944 248.055 20.6087C248.482 21.023 248.698 21.5201 248.703 22.1001C248.698 22.4908 248.594 22.8488 248.393 23.1744C248.197 23.494 247.94 23.7514 247.62 23.9467C247.301 24.1361 246.952 24.2308 246.573 24.2308Z" fill="#CABA27"/>
<defs>
<clipPath id="clip0_429_262">
<rect width="668" height="200" fill="white" transform="translate(0 20)"/>
</clipPath>
</defs>
</svg>
