<svg width="161" height="84" viewBox="0 0 161 84" fill="none" xmlns="http://www.w3.org/2000/svg">
<path d="M24.28 14.44C24.28 17.64 23.6667 20.32 22.44 22.48C21.2133 24.64 19.4267 26.2667 17.08 27.36C14.76 28.4533 11.96 29 8.68 29H0.6V0.439998H9.56C12.5467 0.439998 15.1333 0.973332 17.32 2.04C19.5333 3.10667 21.24 4.68 22.44 6.76C23.6667 8.81333 24.28 11.3733 24.28 14.44ZM18 14.6C18 12.4933 17.6933 10.76 17.08 9.4C16.4667 8.04 15.5467 7.04 14.32 6.4C13.12 5.73333 11.64 5.4 9.88 5.4H6.64V24H9.24C12.2 24 14.4 23.2133 15.84 21.64C17.28 20.0667 18 17.72 18 14.6ZM56.1294 14.68C56.1294 16.8933 55.8494 18.9067 55.2894 20.72C54.756 22.5067 53.9294 24.0533 52.8094 25.36C51.716 26.6667 50.3027 27.6667 48.5694 28.36C46.8627 29.0533 44.8494 29.4 42.5294 29.4C40.2094 29.4 38.1827 29.0533 36.4494 28.36C34.7427 27.64 33.3294 26.64 32.2094 25.36C31.116 24.0533 30.2894 22.4933 29.7294 20.68C29.196 18.8667 28.9294 16.8533 28.9294 14.64C28.9294 11.68 29.4094 9.10667 30.3694 6.92C31.356 4.73333 32.8494 3.04 34.8494 1.84C36.876 0.613332 39.4494 -9.53674e-07 42.5694 -9.53674e-07C45.6627 -9.53674e-07 48.2094 0.613332 50.2094 1.84C52.2094 3.04 53.6894 4.74667 54.6494 6.96C55.636 9.14667 56.1294 11.72 56.1294 14.68ZM35.2894 14.68C35.2894 16.68 35.5427 18.4 36.0494 19.84C36.556 21.28 37.3427 22.3867 38.4094 23.16C39.476 23.9333 40.8494 24.32 42.5294 24.32C44.2627 24.32 45.6494 23.9333 46.6894 23.16C47.756 22.3867 48.5294 21.28 49.0094 19.84C49.516 18.4 49.7694 16.68 49.7694 14.68C49.7694 11.6667 49.2094 9.30667 48.0894 7.6C46.9694 5.89333 45.1294 5.04 42.5694 5.04C40.8627 5.04 39.476 5.42666 38.4094 6.2C37.3427 6.97333 36.556 8.08 36.0494 9.52C35.5427 10.96 35.2894 12.68 35.2894 14.68ZM87.3653 29H79.6853L67.2453 7.4H67.0853C67.112 8.06667 67.1386 8.74667 67.1653 9.44C67.192 10.1067 67.2186 10.7867 67.2453 11.48C67.2986 12.1467 67.3386 12.8267 67.3653 13.52C67.392 14.1867 67.4186 14.8667 67.4453 15.56V29H62.0453V0.439998H69.6853L82.0853 21.84H82.2053C82.1786 21.1733 82.152 20.52 82.1253 19.88C82.0986 19.2133 82.072 18.56 82.0453 17.92C82.0453 17.2533 82.032 16.6 82.0053 15.96C81.9786 15.2933 81.952 14.6267 81.9253 13.96V0.439998H87.3653V29ZM105.424 12.96H116.744V27.76C115.251 28.2667 113.691 28.6667 112.064 28.96C110.464 29.2533 108.638 29.4 106.584 29.4C103.758 29.4 101.344 28.84 99.3444 27.72C97.371 26.6 95.8644 24.9467 94.8244 22.76C93.811 20.5733 93.3044 17.88 93.3044 14.68C93.3044 11.6933 93.8777 9.10667 95.0244 6.92C96.1977 4.73333 97.891 3.04 100.104 1.84C102.318 0.639999 105.024 0.0399985 108.224 0.0399985C109.744 0.0399985 111.238 0.199999 112.704 0.52C114.171 0.839999 115.504 1.26667 116.704 1.8L114.704 6.64C113.824 6.18667 112.824 5.81333 111.704 5.52C110.584 5.22667 109.411 5.08 108.184 5.08C106.424 5.08 104.891 5.48 103.584 6.28C102.304 7.08 101.304 8.21333 100.584 9.68C99.891 11.12 99.5444 12.8267 99.5444 14.8C99.5444 16.6667 99.7977 18.32 100.304 19.76C100.811 21.2 101.611 22.3333 102.704 23.16C103.798 23.96 105.224 24.36 106.984 24.36C107.571 24.36 108.078 24.3467 108.504 24.32C108.958 24.2667 109.371 24.2133 109.744 24.16C110.118 24.08 110.478 24.0133 110.824 23.96V18H105.424V12.96ZM121.13 20.72V15.84H131.61V20.72H121.13ZM153.9 29L151.82 22.2H141.42L139.34 29H132.82L142.9 0.32H150.3L160.42 29H153.9ZM148.3 10.48C148.167 10.0267 147.994 9.45333 147.78 8.76C147.567 8.06667 147.354 7.36 147.14 6.64C146.927 5.92 146.754 5.29333 146.62 4.76C146.487 5.29333 146.3 5.96 146.06 6.76C145.847 7.53333 145.634 8.28 145.42 9C145.234 9.69333 145.087 10.1867 144.98 10.48L142.94 17.12H150.38L148.3 10.48ZM24.28 68.44C24.28 71.64 23.6667 74.32 22.44 76.48C21.2133 78.64 19.4267 80.2667 17.08 81.36C14.76 82.4533 11.96 83 8.68 83H0.6V54.44H9.56C12.5467 54.44 15.1333 54.9733 17.32 56.04C19.5333 57.1067 21.24 58.68 22.44 60.76C23.6667 62.8133 24.28 65.3733 24.28 68.44ZM18 68.6C18 66.4933 17.6933 64.76 17.08 63.4C16.4667 62.04 15.5467 61.04 14.32 60.4C13.12 59.7333 11.64 59.4 9.88 59.4H6.64V78H9.24C12.2 78 14.4 77.2133 15.84 75.64C17.28 74.0667 18 71.72 18 68.6ZM46.6494 83H30.2094V54.44H46.6494V59.4H36.2494V65.68H45.9294V70.64H36.2494V78H46.6494V83ZM61.4722 54.44C64.0055 54.44 66.1255 54.68 67.8322 55.16C69.5655 55.6133 70.8589 56.3733 71.7122 57.44C72.5922 58.48 73.0322 59.8933 73.0322 61.68C73.0322 62.7467 72.8589 63.72 72.5122 64.6C72.1655 65.48 71.6589 66.2 70.9922 66.76C70.3522 67.32 69.5655 67.68 68.6322 67.84V68.04C69.5922 68.2267 70.4589 68.56 71.2322 69.04C72.0055 69.52 72.6189 70.2133 73.0722 71.12C73.5255 72.0267 73.7522 73.2267 73.7522 74.72C73.7522 76.4533 73.3255 77.9467 72.4722 79.2C71.6455 80.4267 70.4455 81.3733 68.8722 82.04C67.2989 82.68 65.4322 83 63.2722 83H52.5922V54.44H61.4722ZM62.1522 65.76C63.9122 65.76 65.1255 65.48 65.7922 64.92C66.4855 64.36 66.8322 63.5467 66.8322 62.48C66.8322 61.3867 66.4322 60.6 65.6322 60.12C64.8322 59.64 63.5655 59.4 61.8322 59.4H58.6322V65.76H62.1522ZM58.6322 70.56V78H62.5922C64.4055 78 65.6722 77.6533 66.3922 76.96C67.1122 76.24 67.4722 75.2933 67.4722 74.12C67.4722 73.4 67.3122 72.7733 66.9922 72.24C66.6989 71.7067 66.1789 71.2933 65.4322 71C64.6855 70.7067 63.6722 70.56 62.3922 70.56H58.6322ZM96.3072 75.08C96.3072 76.76 95.8939 78.2267 95.0672 79.48C94.2405 80.7333 93.0405 81.7067 91.4672 82.4C89.9205 83.0667 88.0272 83.4 85.7872 83.4C84.8005 83.4 83.8272 83.3333 82.8672 83.2C81.9339 83.0667 81.0272 82.88 80.1472 82.64C79.2939 82.3733 78.4805 82.0533 77.7072 81.68V76.04C79.0672 76.6267 80.4672 77.1733 81.9072 77.68C83.3739 78.16 84.8272 78.4 86.2672 78.4C87.2539 78.4 88.0405 78.2667 88.6272 78C89.2405 77.7333 89.6805 77.3733 89.9472 76.92C90.2405 76.4667 90.3872 75.9467 90.3872 75.36C90.3872 74.64 90.1339 74.0267 89.6272 73.52C89.1472 73.0133 88.4939 72.5467 87.6672 72.12C86.8405 71.6667 85.8939 71.1867 84.8272 70.68C84.1605 70.36 83.4405 69.9867 82.6672 69.56C81.8939 69.1067 81.1472 68.56 80.4272 67.92C79.7339 67.2533 79.1605 66.4533 78.7072 65.52C78.2539 64.5867 78.0272 63.4667 78.0272 62.16C78.0272 60.4533 78.4139 59 79.1872 57.8C79.9872 56.5733 81.1072 55.64 82.5472 55C84.0139 54.36 85.7339 54.04 87.7072 54.04C89.2005 54.04 90.6139 54.2133 91.9472 54.56C93.3072 54.9067 94.7205 55.4 96.1872 56.04L94.2272 60.76C92.9205 60.2267 91.7472 59.8133 90.7072 59.52C89.6672 59.2267 88.6005 59.08 87.5072 59.08C86.7605 59.08 86.1205 59.2 85.5872 59.44C85.0539 59.68 84.6405 60.0133 84.3472 60.44C84.0805 60.8667 83.9472 61.3733 83.9472 61.96C83.9472 62.6267 84.1472 63.2 84.5472 63.68C84.9472 64.1333 85.5472 64.5733 86.3472 65C87.1472 65.4267 88.1472 65.9333 89.3472 66.52C90.8139 67.2133 92.0539 67.9333 93.0672 68.68C94.1072 69.4267 94.9072 70.3067 95.4672 71.32C96.0272 72.3333 96.3072 73.5867 96.3072 75.08Z" fill="white"/>
<path d="M22.44 22.48L23.3096 22.9738L23.3096 22.9738L22.44 22.48ZM17.08 27.36L16.6577 26.4535L16.6537 26.4554L17.08 27.36ZM0.6 29H-0.4V30H0.6V29ZM0.6 0.439998V-0.560002H-0.4V0.439998H0.6ZM17.32 2.04L16.8816 2.93878L16.8859 2.94084L17.32 2.04ZM22.44 6.76L21.5738 7.25972L21.5776 7.26632L21.5815 7.27285L22.44 6.76ZM17.08 9.4L17.9916 8.98889L17.08 9.4ZM14.32 6.4L13.8344 7.27416L13.8458 7.28052L13.8574 7.28659L14.32 6.4ZM6.64 5.4V4.4H5.64V5.4H6.64ZM6.64 24H5.64V25H6.64V24ZM15.84 21.64L15.1023 20.9648L15.1023 20.9648L15.84 21.64ZM23.28 14.44C23.28 17.5156 22.6904 20.0141 21.5704 21.9862L23.3096 22.9738C24.6429 20.6259 25.28 17.7644 25.28 14.44H23.28ZM21.5704 21.9862C20.4509 23.9576 18.8245 25.444 16.6577 26.4536L17.5023 28.2664C20.0289 27.0893 21.9758 25.3224 23.3096 22.9738L21.5704 21.9862ZM16.6537 26.4554C14.4988 27.4709 11.8523 28 8.68 28V30C12.0677 30 15.0212 29.4357 17.5063 28.2646L16.6537 26.4554ZM8.68 28H0.6V30H8.68V28ZM1.6 29V0.439998H-0.4V29H1.6ZM0.6 1.44H9.56V-0.560002H0.6V1.44ZM9.56 1.44C12.4287 1.44 14.859 1.95214 16.8816 2.93877L17.7584 1.14123C15.4077 -0.00547433 12.6647 -0.560002 9.56 -0.560002V1.44ZM16.8859 2.94084C18.9226 3.92241 20.4767 5.35805 21.5738 7.25972L23.3062 6.26028C22.0033 4.00195 20.1441 2.29092 17.7541 1.13915L16.8859 2.94084ZM21.5815 7.27285C22.6929 9.13317 23.28 11.5039 23.28 14.44H25.28C25.28 11.2428 24.6405 8.4935 23.2985 6.24714L21.5815 7.27285ZM19 14.6C19 12.4059 18.682 10.5199 17.9916 8.98889L16.1684 9.81111C16.7046 11.0001 17 12.5807 17 14.6H19ZM17.9916 8.98889C17.2938 7.44163 16.224 6.26545 14.7826 5.51342L13.8574 7.28659C14.8694 7.81455 15.6395 8.63837 16.1684 9.81111L17.9916 8.98889ZM14.8056 5.52584C13.4209 4.75655 11.7631 4.4 9.88 4.4V6.4C11.5169 6.4 12.8191 6.71011 13.8344 7.27416L14.8056 5.52584ZM9.88 4.4H6.64V6.4H9.88V4.4ZM5.64 5.4V24H7.64V5.4H5.64ZM6.64 25H9.24V23H6.64V25ZM9.24 25C12.3682 25 14.8838 24.1659 16.5777 22.3152L15.1023 20.9648C13.9162 22.2608 12.0318 23 9.24 23V25ZM16.5777 22.3152C18.2501 20.4878 19 17.856 19 14.6H17C17 17.584 16.3099 19.6455 15.1023 20.9648L16.5777 22.3152ZM55.2894 20.72L54.3339 20.4249L54.3312 20.434L55.2894 20.72ZM52.8094 25.36L52.0501 24.7092L52.0424 24.7183L52.8094 25.36ZM48.5694 28.36L48.198 27.4315L48.193 27.4335L48.5694 28.36ZM36.4494 28.36L36.0607 29.2814L36.0693 29.285L36.078 29.2885L36.4494 28.36ZM32.2094 25.36L31.4424 26.0017L31.4495 26.0102L31.4568 26.0185L32.2094 25.36ZM29.7294 20.68L28.7699 20.9622L28.7739 20.9751L29.7294 20.68ZM30.3694 6.92L29.4578 6.50869L29.4537 6.51801L30.3694 6.92ZM34.8494 1.84L35.3639 2.6975L35.3672 2.6955L34.8494 1.84ZM50.2094 1.84L49.6865 2.69248L49.6949 2.69749L50.2094 1.84ZM54.6494 6.96L53.732 7.35792L53.7349 7.36462L53.7379 7.37129L54.6494 6.96ZM38.4094 23.16L38.9963 22.3504L38.9963 22.3504L38.4094 23.16ZM46.6894 23.16L46.1024 22.3503L46.0927 22.3575L46.6894 23.16ZM49.0094 19.84L48.0661 19.5081L48.0633 19.5159L48.0607 19.5238L49.0094 19.84ZM48.0894 7.6L47.2533 8.14866L47.2533 8.14866L48.0894 7.6ZM38.4094 6.2L37.8224 5.39039L37.8224 5.39039L38.4094 6.2ZM36.0494 9.52L35.1061 9.18809L36.0494 9.52ZM55.1294 14.68C55.1294 16.8095 54.86 18.7215 54.3339 20.4249L56.2448 21.0151C56.8388 19.0918 57.1294 16.9772 57.1294 14.68H55.1294ZM54.3312 20.434C53.8345 22.0978 53.0716 23.5175 52.0501 24.7092L53.5686 26.0108C54.7872 24.5892 55.6776 22.9155 56.2476 21.006L54.3312 20.434ZM52.0424 24.7183C51.0651 25.8863 49.7928 26.7936 48.198 27.4315L48.9408 29.2885C50.8126 28.5397 52.3669 27.4471 53.5763 26.0017L52.0424 24.7183ZM48.193 27.4335C46.6325 28.0675 44.7526 28.4 42.5294 28.4V30.4C44.9462 30.4 47.0929 30.0392 48.9458 29.2865L48.193 27.4335ZM42.5294 28.4C40.3068 28.4 38.4111 28.0677 36.8208 27.4315L36.078 29.2885C37.9543 30.039 40.112 30.4 42.5294 30.4V28.4ZM36.8381 27.4386C35.2584 26.7722 33.9735 25.8575 32.962 24.7015L31.4568 26.0185C32.6853 27.4225 34.227 28.5078 36.0607 29.2814L36.8381 27.4386ZM32.9763 24.7183C31.9774 23.5245 31.2101 22.0858 30.6848 20.3849L28.7739 20.9751C29.3686 22.9009 30.2546 24.5822 31.4424 26.0017L32.9763 24.7183ZM30.6887 20.3978C30.1865 18.6902 29.9294 16.7737 29.9294 14.64H27.9294C27.9294 16.933 28.2056 19.0431 28.77 20.9622L30.6887 20.3978ZM29.9294 14.64C29.9294 11.7862 30.3923 9.35545 31.285 7.32199L29.4537 6.51801C28.4265 8.85788 27.9294 11.5738 27.9294 14.64H29.9294ZM31.2809 7.33129C32.1863 5.32468 33.5438 3.78953 35.3639 2.69749L34.3349 0.982506C32.1549 2.29047 30.5258 4.14199 29.4579 6.50871L31.2809 7.33129ZM35.3672 2.6955C37.1956 1.58884 39.5755 0.999999 42.5694 0.999999V-1C39.3232 -1 36.5565 -0.362173 34.3316 0.984499L35.3672 2.6955ZM42.5694 0.999999C45.5355 0.999999 47.8865 1.58839 49.6865 2.69244L50.7322 0.987561C48.5323 -0.361727 45.7899 -1 42.5694 -1V0.999999ZM49.6949 2.69749C51.5094 3.78623 52.852 5.32905 53.732 7.35792L55.5668 6.56208C54.5268 4.16429 52.9093 2.29377 50.7239 0.982506L49.6949 2.69749ZM53.7379 7.37129C54.6542 9.40215 55.1294 11.8295 55.1294 14.68H57.1294C57.1294 11.6105 56.6178 8.89118 55.5609 6.54871L53.7379 7.37129ZM34.2894 14.68C34.2894 16.76 34.5523 18.598 35.1061 20.1719L36.9927 19.5081C36.5331 18.202 36.2894 16.6 36.2894 14.68H34.2894ZM35.1061 20.1719C35.6692 21.7723 36.5662 23.0588 37.8224 23.9696L38.9963 22.3504C38.1192 21.7145 37.4429 20.7877 36.9927 19.5081L35.1061 20.1719ZM37.8224 23.9696C39.1016 24.897 40.6968 25.32 42.5294 25.32V23.32C41.0019 23.32 39.8505 22.9697 38.9963 22.3504L37.8224 23.9696ZM42.5294 25.32C44.4058 25.32 46.0237 24.9012 47.2861 23.9625L46.0927 22.3575C45.2751 22.9655 44.1196 23.32 42.5294 23.32V25.32ZM47.2763 23.9696C48.537 23.0556 49.4224 21.7632 49.9581 20.1562L48.0607 19.5238C47.6364 20.7968 46.9751 21.7177 46.1024 22.3504L47.2763 23.9696ZM49.9527 20.1719C50.5065 18.598 50.7694 16.76 50.7694 14.68H48.7694C48.7694 16.6 48.5256 18.202 48.0661 19.5081L49.9527 20.1719ZM50.7694 14.68C50.7694 11.5592 50.192 8.98133 48.9254 7.05134L47.2533 8.14866C48.2268 9.632 48.7694 11.7741 48.7694 14.68H50.7694ZM48.9254 7.05134C47.5729 4.99038 45.3691 4.04 42.5694 4.04V6.04C44.8897 6.04 46.3658 6.79628 47.2533 8.14866L48.9254 7.05134ZM42.5694 4.04C40.7141 4.04 39.1041 4.4612 37.8224 5.39039L38.9963 7.00961C39.848 6.39213 41.0113 6.04 42.5694 6.04V4.04ZM37.8224 5.39039C36.5662 6.30115 35.6692 7.58767 35.1061 9.18809L36.9927 9.85191C37.4429 8.57232 38.1192 7.64551 38.9963 7.00961L37.8224 5.39039ZM35.1061 9.18809C34.5523 10.762 34.2894 12.6 34.2894 14.68H36.2894C36.2894 12.76 36.5331 11.158 36.9927 9.85191L35.1061 9.18809ZM87.3653 29V30H88.3653V29H87.3653ZM79.6853 29L78.8188 29.4991L79.1073 30H79.6853V29ZM67.2453 7.4L68.1119 6.90093L67.8234 6.4H67.2453V7.4ZM67.0853 7.4V6.4H66.0445L66.0861 7.43997L67.0853 7.4ZM67.1653 9.44L66.1661 9.47843L66.1661 9.47997L67.1653 9.44ZM67.2453 11.48L66.2461 11.5184L66.2468 11.5391L66.2485 11.5597L67.2453 11.48ZM67.3653 13.52L66.3661 13.5584L66.3661 13.56L67.3653 13.52ZM67.4453 15.56H68.4453V15.5408L68.4446 15.5216L67.4453 15.56ZM67.4453 29V30H68.4453V29H67.4453ZM62.0453 29H61.0453V30H62.0453V29ZM62.0453 0.439998V-0.560002H61.0453V0.439998H62.0453ZM69.6853 0.439998L70.5506 -0.0613568L70.2616 -0.560002H69.6853V0.439998ZM82.0853 21.84L81.2201 22.3414L81.509 22.84H82.0853V21.84ZM82.2053 21.84V22.84H83.2461L83.2045 21.8L82.2053 21.84ZM82.1253 19.88L81.1261 19.92L81.1262 19.9216L82.1253 19.88ZM82.0453 17.92H81.0453V17.9408L81.0462 17.9616L82.0453 17.92ZM82.0053 15.96L81.0061 16L81.0062 16.0016L82.0053 15.96ZM81.9253 13.96H80.9253V13.98L80.9261 14L81.9253 13.96ZM81.9253 0.439998V-0.560002H80.9253V0.439998H81.9253ZM87.3653 0.439998H88.3653V-0.560002H87.3653V0.439998ZM87.3653 28H79.6853V30H87.3653V28ZM80.5519 28.5009L68.1119 6.90093L66.3788 7.89907L78.8188 29.4991L80.5519 28.5009ZM67.2453 6.4H67.0853V8.4H67.2453V6.4ZM66.0861 7.43997C66.1128 8.1061 66.1394 8.78559 66.1661 9.47843L68.1646 9.40157C68.1379 8.70774 68.1112 8.02723 68.0845 7.36003L66.0861 7.43997ZM66.1661 9.47997C66.1928 10.1461 66.2194 10.8256 66.2461 11.5184L68.2446 11.4416C68.2179 10.7477 68.1912 10.0672 68.1645 9.40003L66.1661 9.47997ZM66.2485 11.5597C66.3007 12.2122 66.3399 12.8784 66.3661 13.5584L68.3646 13.4816C68.3374 12.775 68.2966 12.0812 68.2421 11.4003L66.2485 11.5597ZM66.3661 13.56C66.3928 14.2261 66.4194 14.9056 66.4461 15.5984L68.4446 15.5216C68.4179 14.8277 68.3912 14.1472 68.3645 13.48L66.3661 13.56ZM66.4453 15.56V29H68.4453V15.56H66.4453ZM67.4453 28H62.0453V30H67.4453V28ZM63.0453 29V0.439998H61.0453V29H63.0453ZM62.0453 1.44H69.6853V-0.560002H62.0453V1.44ZM68.8201 0.941353L81.2201 22.3414L82.9506 21.3386L70.5506 -0.0613568L68.8201 0.941353ZM82.0853 22.84H82.2053V20.84H82.0853V22.84ZM83.2045 21.8C83.1778 21.1328 83.1511 20.4789 83.1244 19.8384L81.1262 19.9216C81.1528 20.5611 81.1795 21.2138 81.2061 21.88L83.2045 21.8ZM83.1245 19.84C83.0978 19.1728 83.0711 18.5189 83.0444 17.8784L81.0462 17.9616C81.0728 18.6011 81.0995 19.2538 81.1261 19.92L83.1245 19.84ZM83.0453 17.92C83.0453 17.24 83.0317 16.5728 83.0044 15.9184L81.0062 16.0016C81.0322 16.6272 81.0453 17.2667 81.0453 17.92H83.0453ZM83.0045 15.92C82.9778 15.2534 82.9512 14.5867 82.9245 13.92L80.9261 14C80.9528 14.6666 80.9794 15.3333 81.0061 16L83.0045 15.92ZM82.9253 13.96V0.439998H80.9253V13.96H82.9253ZM81.9253 1.44H87.3653V-0.560002H81.9253V1.44ZM86.3653 0.439998V29H88.3653V0.439998H86.3653ZM105.424 12.96V11.96H104.424V12.96H105.424ZM116.744 12.96H117.744V11.96H116.744V12.96ZM116.744 27.76L117.066 28.707L117.744 28.4767V27.76H116.744ZM112.064 28.96L111.887 27.9759L111.884 27.9764L112.064 28.96ZM99.3444 27.72L98.8508 28.5897L98.8558 28.5925L99.3444 27.72ZM94.8244 22.76L93.917 23.1805L93.9213 23.1895L94.8244 22.76ZM95.0244 6.92L94.1432 6.44716L94.1388 6.45559L95.0244 6.92ZM112.704 0.52L112.491 1.49702L112.491 1.49702L112.704 0.52ZM116.704 1.8L117.629 2.1819L118.001 1.28176L117.111 0.886189L116.704 1.8ZM114.704 6.64L114.246 7.52897L115.213 8.02703L115.629 7.0219L114.704 6.64ZM111.704 5.52L111.451 6.48737L111.451 6.48737L111.704 5.52ZM103.584 6.28L103.062 5.42711L103.054 5.432L103.584 6.28ZM100.584 9.68L99.6867 9.23931L99.6834 9.24618L100.584 9.68ZM100.304 19.76L99.3611 20.0919L99.3611 20.0919L100.304 19.76ZM102.704 23.16L102.101 23.9577L102.108 23.9624L102.114 23.967L102.704 23.16ZM108.504 24.32L108.567 25.3181L108.594 25.3163L108.621 25.3132L108.504 24.32ZM109.744 24.16L109.886 25.1499L109.92 25.1451L109.954 25.1378L109.744 24.16ZM110.824 23.96L110.976 24.9484L111.824 24.8179V23.96H110.824ZM110.824 18H111.824V17H110.824V18ZM105.424 18H104.424V19H105.424V18ZM105.424 13.96H116.744V11.96H105.424V13.96ZM115.744 12.96V27.76H117.744V12.96H115.744ZM116.423 26.813C114.979 27.303 113.467 27.6909 111.887 27.9759L112.242 29.9441C113.915 29.6424 115.523 29.2303 117.066 28.707L116.423 26.813ZM111.884 27.9764C110.357 28.2564 108.592 28.4 106.584 28.4V30.4C108.683 30.4 110.572 30.2502 112.245 29.9436L111.884 27.9764ZM106.584 28.4C103.889 28.4 101.653 27.8665 99.833 26.8475L98.8558 28.5925C101.036 29.8135 103.626 30.4 106.584 30.4V28.4ZM99.838 26.8503C98.0553 25.8385 96.6856 24.345 95.7274 22.3305L93.9213 23.1895C95.0432 25.5483 96.6868 27.3615 98.8508 28.5897L99.838 26.8503ZM95.7317 22.3395C94.796 20.3204 94.3044 17.7801 94.3044 14.68H92.3044C92.3044 17.9799 92.8261 20.8263 93.9171 23.1805L95.7317 22.3395ZM94.3044 14.68C94.3044 11.8215 94.8526 9.40074 95.91 7.38441L94.1388 6.45559C92.9028 8.81259 92.3044 11.5652 92.3044 14.68H94.3044ZM95.9055 7.39282C96.9852 5.3808 98.5366 3.8275 100.581 2.71911L99.6278 0.960892C97.2455 2.25249 95.4103 4.08586 94.1432 6.44718L95.9055 7.39282ZM100.581 2.71911C102.614 1.6171 105.147 1.04 108.224 1.04V-0.960001C104.902 -0.960001 102.022 -0.337099 99.6278 0.960892L100.581 2.71911ZM108.224 1.04C109.674 1.04 111.095 1.19248 112.491 1.49702L112.918 -0.457016C111.38 -0.792487 109.815 -0.960001 108.224 -0.960001V1.04ZM112.491 1.49702C113.901 1.80456 115.168 2.21162 116.298 2.71381L117.111 0.886189C115.84 0.321706 114.441 -0.124564 112.918 -0.457016L112.491 1.49702ZM115.78 1.4181L113.78 6.2581L115.629 7.0219L117.629 2.1819L115.78 1.4181ZM115.162 5.75102C114.207 5.25906 113.137 4.86148 111.958 4.55263L111.451 6.48737C112.512 6.76519 113.441 7.11427 114.246 7.52897L115.162 5.75102ZM111.958 4.55263C110.75 4.23638 109.491 4.08 108.184 4.08V6.08C109.331 6.08 110.418 6.21695 111.451 6.48737L111.958 4.55263ZM108.184 4.08C106.268 4.08 104.548 4.5173 103.062 5.42715L104.107 7.13285C105.234 6.44269 106.581 6.08 108.184 6.08V4.08ZM103.054 5.432C101.603 6.33897 100.482 7.61959 99.6867 9.23933L101.482 10.1207C102.127 8.80707 103.006 7.82103 104.114 7.128L103.054 5.432ZM99.6834 9.24618C98.9114 10.8495 98.5444 12.711 98.5444 14.8H100.544C100.544 12.9424 100.871 11.3905 101.485 10.1138L99.6834 9.24618ZM98.5444 14.8C98.5444 16.7554 98.8096 18.5245 99.3611 20.0919L101.248 19.4281C100.786 18.1155 100.544 16.5779 100.544 14.8H98.5444ZM99.3611 20.0919C99.9252 21.6953 100.834 22.9993 102.101 23.9577L103.307 22.3623C102.388 21.6674 101.697 20.7047 101.248 19.4281L99.3611 20.0919ZM102.114 23.967C103.424 24.9253 105.076 25.36 106.984 25.36V23.36C105.373 23.36 104.172 22.9947 103.295 22.353L102.114 23.967ZM106.984 25.36C107.585 25.36 108.113 25.3464 108.567 25.3181L108.442 23.3219C108.042 23.3469 107.557 23.36 106.984 23.36V25.36ZM108.621 25.3132C109.081 25.259 109.503 25.2047 109.886 25.1499L109.603 23.1701C109.239 23.222 108.834 23.2743 108.388 23.3268L108.621 25.3132ZM109.954 25.1378C110.31 25.0615 110.651 24.9985 110.976 24.9484L110.672 22.9716C110.305 23.0282 109.926 23.0985 109.535 23.1822L109.954 25.1378ZM111.824 23.96V18H109.824V23.96H111.824ZM110.824 17H105.424V19H110.824V17ZM106.424 18V12.96H104.424V18H106.424ZM121.13 20.72H120.13V21.72H121.13V20.72ZM121.13 15.84V14.84H120.13V15.84H121.13ZM131.61 15.84H132.61V14.84H131.61V15.84ZM131.61 20.72V21.72H132.61V20.72H131.61ZM122.13 20.72V15.84H120.13V20.72H122.13ZM121.13 16.84H131.61V14.84H121.13V16.84ZM130.61 15.84V20.72H132.61V15.84H130.61ZM131.61 19.72H121.13V21.72H131.61V19.72ZM153.9 29L152.944 29.2925L153.16 30H153.9V29ZM151.82 22.2L152.777 21.9075L152.56 21.2H151.82V22.2ZM141.42 22.2V21.2H140.68L140.464 21.9075L141.42 22.2ZM139.34 29V30H140.08L140.297 29.2925L139.34 29ZM132.82 29L131.877 28.6684L131.409 30H132.82V29ZM142.9 0.32V-0.68H142.192L141.957 -0.0115813L142.9 0.32ZM150.3 0.32L151.243 -0.0127517L151.008 -0.68H150.3V0.32ZM160.42 29V30H161.834L161.363 28.6672L160.42 29ZM148.3 10.48L147.341 10.7622L147.343 10.7706L147.346 10.7789L148.3 10.48ZM147.78 8.76L146.825 9.05408L146.825 9.05408L147.78 8.76ZM147.14 6.64L146.182 6.92409L146.182 6.92409L147.14 6.64ZM146.62 4.76L147.59 4.51746L145.65 4.51746L146.62 4.76ZM146.06 6.76L145.102 6.47265L145.099 6.48333L145.096 6.49407L146.06 6.76ZM145.42 9L144.462 8.71591L144.458 8.72793L144.455 8.74003L145.42 9ZM144.98 10.48L144.041 10.1383L144.032 10.1621L144.024 10.1863L144.98 10.48ZM142.94 17.12L141.984 16.8263L141.587 18.12H142.94V17.12ZM150.38 17.12V18.12H151.741L151.335 16.8211L150.38 17.12ZM154.857 28.7075L152.777 21.9075L150.864 22.4925L152.944 29.2925L154.857 28.7075ZM151.82 21.2H141.42V23.2H151.82V21.2ZM140.464 21.9075L138.384 28.7075L140.297 29.2925L142.377 22.4925L140.464 21.9075ZM139.34 28H132.82V30H139.34V28ZM133.764 29.3316L143.844 0.651581L141.957 -0.0115813L131.877 28.6684L133.764 29.3316ZM142.9 1.32H150.3V-0.68H142.9V1.32ZM149.357 0.652751L159.477 29.3328L161.363 28.6672L151.243 -0.0127517L149.357 0.652751ZM160.42 28H153.9V30H160.42V28ZM149.26 10.1978C149.125 9.73902 148.95 9.16136 148.736 8.46591L146.825 9.05408C147.037 9.7453 147.209 10.3143 147.341 10.7622L149.26 10.1978ZM148.736 8.46591C148.524 7.77602 148.311 7.07269 148.099 6.35591L146.182 6.92409C146.396 7.64731 146.61 8.35731 146.825 9.05408L148.736 8.46591ZM148.099 6.35591C147.888 5.64509 147.719 5.03289 147.59 4.51746L145.65 5.00254C145.788 5.55378 145.965 6.19491 146.182 6.92409L148.099 6.35591ZM145.65 4.51746C145.522 5.03021 145.34 5.68074 145.102 6.47265L147.018 7.04735C147.261 6.23926 147.452 5.55646 147.59 5.00254L145.65 4.51746ZM145.096 6.49407C144.885 7.26174 144.673 8.00234 144.462 8.71591L146.379 9.28409C146.594 8.55766 146.809 7.80492 147.024 7.02593L145.096 6.49407ZM144.455 8.74003C144.268 9.43182 144.131 9.88882 144.041 10.1383L145.92 10.8217C146.043 10.4845 146.199 9.95484 146.386 9.25997L144.455 8.74003ZM144.024 10.1863L141.984 16.8263L143.896 17.4137L145.936 10.7737L144.024 10.1863ZM142.94 18.12H150.38V16.12H142.94V18.12ZM151.335 16.8211L149.255 10.1811L147.346 10.7789L149.426 17.4189L151.335 16.8211ZM22.44 76.48L23.3096 76.9738L23.3096 76.9738L22.44 76.48ZM17.08 81.36L16.6577 80.4535L16.6537 80.4554L17.08 81.36ZM0.6 83H-0.4V84H0.6V83ZM0.6 54.44V53.44H-0.4V54.44H0.6ZM17.32 56.04L16.8816 56.9388L16.8859 56.9408L17.32 56.04ZM22.44 60.76L21.5738 61.2597L21.5776 61.2663L21.5815 61.2729L22.44 60.76ZM17.08 63.4L17.9916 62.9889L17.08 63.4ZM14.32 60.4L13.8344 61.2742L13.8458 61.2805L13.8574 61.2866L14.32 60.4ZM6.64 59.4V58.4H5.64V59.4H6.64ZM6.64 78H5.64V79H6.64V78ZM15.84 75.64L15.1023 74.9648L15.1023 74.9648L15.84 75.64ZM23.28 68.44C23.28 71.5156 22.6904 74.0141 21.5704 75.9862L23.3096 76.9738C24.6429 74.6259 25.28 71.7644 25.28 68.44H23.28ZM21.5704 75.9862C20.4509 77.9576 18.8245 79.444 16.6577 80.4536L17.5023 82.2664C20.0289 81.0893 21.9758 79.3224 23.3096 76.9738L21.5704 75.9862ZM16.6537 80.4554C14.4988 81.4709 11.8523 82 8.68 82V84C12.0677 84 15.0212 83.4357 17.5063 82.2646L16.6537 80.4554ZM8.68 82H0.6V84H8.68V82ZM1.6 83V54.44H-0.4V83H1.6ZM0.6 55.44H9.56V53.44H0.6V55.44ZM9.56 55.44C12.4287 55.44 14.859 55.9521 16.8816 56.9388L17.7584 55.1412C15.4077 53.9945 12.6647 53.44 9.56 53.44V55.44ZM16.8859 56.9408C18.9226 57.9224 20.4767 59.3581 21.5738 61.2597L23.3062 60.2603C22.0033 58.0019 20.1441 56.2909 17.7541 55.1392L16.8859 56.9408ZM21.5815 61.2729C22.6929 63.1332 23.28 65.5039 23.28 68.44H25.28C25.28 65.2428 24.6405 62.4935 23.2985 60.2471L21.5815 61.2729ZM19 68.6C19 66.4059 18.682 64.5199 17.9916 62.9889L16.1684 63.8111C16.7046 65.0001 17 66.5807 17 68.6H19ZM17.9916 62.9889C17.2938 61.4416 16.224 60.2654 14.7826 59.5134L13.8574 61.2866C14.8694 61.8146 15.6395 62.6384 16.1684 63.8111L17.9916 62.9889ZM14.8056 59.5258C13.4209 58.7566 11.7631 58.4 9.88 58.4V60.4C11.5169 60.4 12.8191 60.7101 13.8344 61.2742L14.8056 59.5258ZM9.88 58.4H6.64V60.4H9.88V58.4ZM5.64 59.4V78H7.64V59.4H5.64ZM6.64 79H9.24V77H6.64V79ZM9.24 79C12.3682 79 14.8838 78.1659 16.5777 76.3152L15.1023 74.9648C13.9162 76.2608 12.0318 77 9.24 77V79ZM16.5777 76.3152C18.2501 74.4878 19 71.856 19 68.6H17C17 71.584 16.3099 73.6455 15.1023 74.9648L16.5777 76.3152ZM46.6494 83V84H47.6494V83H46.6494ZM30.2094 83H29.2094V84H30.2094V83ZM30.2094 54.44V53.44H29.2094V54.44H30.2094ZM46.6494 54.44H47.6494V53.44H46.6494V54.44ZM46.6494 59.4V60.4H47.6494V59.4H46.6494ZM36.2494 59.4V58.4H35.2494V59.4H36.2494ZM36.2494 65.68H35.2494V66.68H36.2494V65.68ZM45.9294 65.68H46.9294V64.68H45.9294V65.68ZM45.9294 70.64V71.64H46.9294V70.64H45.9294ZM36.2494 70.64V69.64H35.2494V70.64H36.2494ZM36.2494 78H35.2494V79H36.2494V78ZM46.6494 78H47.6494V77H46.6494V78ZM46.6494 82H30.2094V84H46.6494V82ZM31.2094 83V54.44H29.2094V83H31.2094ZM30.2094 55.44H46.6494V53.44H30.2094V55.44ZM45.6494 54.44V59.4H47.6494V54.44H45.6494ZM46.6494 58.4H36.2494V60.4H46.6494V58.4ZM35.2494 59.4V65.68H37.2494V59.4H35.2494ZM36.2494 66.68H45.9294V64.68H36.2494V66.68ZM44.9294 65.68V70.64H46.9294V65.68H44.9294ZM45.9294 69.64H36.2494V71.64H45.9294V69.64ZM35.2494 70.64V78H37.2494V70.64H35.2494ZM36.2494 79H46.6494V77H36.2494V79ZM45.6494 78V83H47.6494V78H45.6494ZM67.8322 55.16L67.5614 56.1226L67.5703 56.1251L67.5792 56.1275L67.8322 55.16ZM71.7122 57.44L70.9313 58.0647L70.9399 58.0754L70.9488 58.0859L71.7122 57.44ZM72.5122 64.6L71.5818 64.2335L71.5818 64.2335L72.5122 64.6ZM70.9922 66.76L70.349 65.9943L70.3413 66.0008L70.3337 66.0074L70.9922 66.76ZM68.6322 67.84L68.4632 66.8544L67.6322 66.9968V67.84H68.6322ZM68.6322 68.04H67.6322V68.8643L68.4413 69.0216L68.6322 68.04ZM71.2322 69.04L71.7596 68.1904L71.7596 68.1904L71.2322 69.04ZM73.0722 71.12L73.9666 70.6728L73.9666 70.6728L73.0722 71.12ZM72.4722 79.2L71.6456 78.6372L71.6429 78.6411L72.4722 79.2ZM68.8722 82.04L69.249 82.9663L69.2557 82.9636L69.2623 82.9608L68.8722 82.04ZM52.5922 83H51.5922V84H52.5922V83ZM52.5922 54.44V53.44H51.5922V54.44H52.5922ZM65.7922 64.92L65.1639 64.1421L65.1564 64.1481L65.149 64.1543L65.7922 64.92ZM58.6322 59.4V58.4H57.6322V59.4H58.6322ZM58.6322 65.76H57.6322V66.76H58.6322V65.76ZM58.6322 70.56V69.56H57.6322V70.56H58.6322ZM58.6322 78H57.6322V79H58.6322V78ZM66.3922 76.96L67.0858 77.6803L67.0926 77.6738L67.0993 77.6671L66.3922 76.96ZM66.9922 72.24L66.116 72.7219L66.125 72.7384L66.1347 72.7545L66.9922 72.24ZM61.4722 55.44C63.9497 55.44 65.9717 55.6755 67.5614 56.1226L68.1029 54.1973C66.2794 53.6845 64.0614 53.44 61.4722 53.44V55.44ZM67.5792 56.1275C69.169 56.5433 70.249 57.2118 70.9313 58.0647L72.4931 56.8153C71.4687 55.5349 69.962 54.6834 68.0852 54.1925L67.5792 56.1275ZM70.9488 58.0859C71.6339 58.8955 72.0322 60.0551 72.0322 61.68H74.0322C74.0322 59.7315 73.5505 58.0645 72.4756 56.7941L70.9488 58.0859ZM72.0322 61.68C72.0322 62.6371 71.877 63.4842 71.5818 64.2335L73.4426 64.9665C73.8407 63.9558 74.0322 62.8562 74.0322 61.68H72.0322ZM71.5818 64.2335C71.2907 64.9723 70.8774 65.5505 70.349 65.9943L71.6354 67.5257C72.4403 66.8495 73.0403 65.9877 73.4426 64.9665L71.5818 64.2335ZM70.3337 66.0074C69.8476 66.4327 69.2362 66.7219 68.4632 66.8544L68.8012 68.8256C69.8948 68.6381 70.8567 68.2073 71.6507 67.5126L70.3337 66.0074ZM67.6322 67.84V68.04H69.6322V67.84H67.6322ZM68.4413 69.0216C69.291 69.1868 70.0422 69.4783 70.7048 69.8896L71.7596 68.1904C70.8755 67.6417 69.8934 67.2665 68.8231 67.0584L68.4413 69.0216ZM70.7048 69.8896C71.3035 70.2612 71.7975 70.8067 72.1778 71.5672L73.9666 70.6728C73.4402 69.62 72.7076 68.7788 71.7596 68.1904L70.7048 69.8896ZM72.1778 71.5672C72.5367 72.285 72.7522 73.3142 72.7522 74.72H74.7522C74.7522 73.1391 74.5144 71.7683 73.9666 70.6728L72.1778 71.5672ZM72.7522 74.72C72.7522 76.2823 72.3703 77.5728 71.6456 78.6372L73.2988 79.7628C74.2807 78.3206 74.7522 76.6244 74.7522 74.72H72.7522ZM71.6429 78.6411C70.9405 79.6834 69.9054 80.5161 68.482 81.1192L69.2623 82.9608C70.9857 82.2305 72.3505 81.1699 73.3015 79.7589L71.6429 78.6411ZM68.4954 81.1137C67.0694 81.6938 65.3367 82 63.2722 82V84C65.5277 84 67.5283 83.6662 69.249 82.9663L68.4954 81.1137ZM63.2722 82H52.5922V84H63.2722V82ZM53.5922 83V54.44H51.5922V83H53.5922ZM52.5922 55.44H61.4722V53.44H52.5922V55.44ZM62.1522 66.76C63.9448 66.76 65.4781 66.4898 66.4354 65.6857L65.149 64.1543C64.7729 64.4702 63.8796 64.76 62.1522 64.76V66.76ZM66.4205 65.6979C67.3959 64.9102 67.8322 63.7828 67.8322 62.48H65.8322C65.8322 63.3105 65.5752 63.8098 65.1639 64.1421L66.4205 65.6979ZM67.8322 62.48C67.8322 61.1067 67.3044 59.9571 66.1467 59.2625L65.1177 60.9775C65.56 61.2429 65.8322 61.6666 65.8322 62.48H67.8322ZM66.1467 59.2625C65.1077 58.6391 63.6149 58.4 61.8322 58.4V60.4C63.5161 60.4 64.5567 60.6409 65.1177 60.9775L66.1467 59.2625ZM61.8322 58.4H58.6322V60.4H61.8322V58.4ZM57.6322 59.4V65.76H59.6322V59.4H57.6322ZM58.6322 66.76H62.1522V64.76H58.6322V66.76ZM57.6322 70.56V78H59.6322V70.56H57.6322ZM58.6322 79H62.5922V77H58.6322V79ZM62.5922 79C64.4736 79 66.0768 78.652 67.0858 77.6803L65.6985 76.2397C65.2676 76.6547 64.3374 77 62.5922 77V79ZM67.0993 77.6671C68.0357 76.7307 68.4722 75.5148 68.4722 74.12H66.4722C66.4722 75.0719 66.1887 75.7493 65.6851 76.2529L67.0993 77.6671ZM68.4722 74.12C68.4722 73.2478 68.2768 72.4374 67.8497 71.7255L66.1347 72.7545C66.3476 73.1093 66.4722 73.5522 66.4722 74.12H68.4722ZM67.8684 71.7581C67.431 70.9628 66.6921 70.4206 65.7978 70.0692L65.0665 71.9308C65.6656 72.1661 65.9667 72.4505 66.116 72.7219L67.8684 71.7581ZM65.7978 70.0692C64.8861 69.7111 63.7317 69.56 62.3922 69.56V71.56C63.6127 71.56 64.4849 71.7022 65.0665 71.9308L65.7978 70.0692ZM62.3922 69.56H58.6322V71.56H62.3922V69.56ZM95.0672 79.48L94.2324 78.9294L94.2324 78.9294L95.0672 79.48ZM91.4672 82.4L91.863 83.3184L91.8704 83.3151L91.4672 82.4ZM82.8672 83.2L82.7258 84.19L82.7296 84.1905L82.8672 83.2ZM80.1472 82.64L79.8489 83.5945L79.8664 83.5999L79.8841 83.6048L80.1472 82.64ZM77.7072 81.68H76.7072V82.3077L77.2724 82.5806L77.7072 81.68ZM77.7072 76.04L78.1033 75.1218L76.7072 74.5196V76.04H77.7072ZM81.9072 77.68L81.5753 78.6233L81.5857 78.627L81.5961 78.6304L81.9072 77.68ZM88.6272 78L88.2285 77.0829L88.2209 77.0862L88.2134 77.0896L88.6272 78ZM89.9472 76.92L89.1076 76.3767L89.0961 76.3946L89.0853 76.413L89.9472 76.92ZM89.6272 73.52L88.9012 74.2077L88.9105 74.2176L88.9201 74.2271L89.6272 73.52ZM87.6672 72.12L87.1864 72.9968L87.1974 73.0029L87.2085 73.0086L87.6672 72.12ZM84.8272 70.68L84.3945 71.5815L84.3981 71.5833L84.8272 70.68ZM82.6672 69.56L82.1615 70.4227L82.1727 70.4293L82.1841 70.4356L82.6672 69.56ZM80.4272 67.92L79.7341 68.6408L79.7482 68.6544L79.7628 68.6674L80.4272 67.92ZM78.7072 65.52L77.8077 65.9569L77.8077 65.9569L78.7072 65.52ZM79.1872 57.8L78.3496 57.2537L78.3466 57.2583L79.1872 57.8ZM82.5472 55L82.1472 54.0834L82.141 54.0862L82.5472 55ZM91.9472 54.56L91.6956 55.5278L91.7002 55.529L91.9472 54.56ZM96.1872 56.04L97.1107 56.4235L97.4874 55.5163L96.5871 55.1235L96.1872 56.04ZM94.2272 60.76L93.8493 61.6858L94.7695 62.0615L95.1507 61.1435L94.2272 60.76ZM90.7072 59.52L90.4357 60.4824L90.4357 60.4824L90.7072 59.52ZM85.5872 59.44L85.9976 60.3519L85.9976 60.3519L85.5872 59.44ZM84.3472 60.44L83.5231 59.8735L83.5108 59.8915L83.4992 59.91L84.3472 60.44ZM84.5472 63.68L83.779 64.3202L83.788 64.331L83.7974 64.3416L84.5472 63.68ZM86.3472 65L86.8178 64.1176L86.8178 64.1176L86.3472 65ZM89.3472 66.52L88.9079 67.4185L88.9198 67.4241L89.3472 66.52ZM93.0672 68.68L92.4739 69.4851L92.484 69.4923L93.0672 68.68ZM95.4672 71.32L94.5919 71.8037L94.5919 71.8037L95.4672 71.32ZM95.3072 75.08C95.3072 76.5884 94.9388 77.8585 94.2324 78.9294L95.902 80.0306C96.849 78.5948 97.3072 76.9316 97.3072 75.08H95.3072ZM94.2324 78.9294C93.5263 80 92.4876 80.8575 91.0639 81.4849L91.8704 83.3151C93.5935 82.5558 94.9547 81.4667 95.902 80.0306L94.2324 78.9294ZM91.0714 81.4817C89.6836 82.0798 87.9336 82.4 85.7872 82.4V84.4C88.1207 84.4 90.1574 84.0535 91.863 83.3183L91.0714 81.4817ZM85.7872 82.4C84.8457 82.4 83.9184 82.3364 83.0048 82.2095L82.7296 84.1905C83.736 84.3303 84.7553 84.4 85.7872 84.4V82.4ZM83.0086 82.2101C82.115 82.0824 81.249 81.904 80.4103 81.6752L79.8841 83.6048C80.8054 83.856 81.7528 84.0509 82.7258 84.1899L83.0086 82.2101ZM80.4455 81.6855C79.637 81.4329 78.8694 81.1306 78.1419 80.7794L77.2724 82.5806C78.0916 82.976 78.9507 83.3138 79.8489 83.5945L80.4455 81.6855ZM78.7072 81.68V76.04H76.7072V81.68H78.7072ZM77.3111 76.9582C78.6928 77.5543 80.1143 78.1093 81.5753 78.6233L82.2391 76.7367C80.8201 76.2374 79.4415 75.6991 78.1033 75.1218L77.3111 76.9582ZM81.5961 78.6304C83.156 79.1409 84.7142 79.4 86.2672 79.4V77.4C84.9402 77.4 83.5917 77.1791 82.2182 76.7296L81.5961 78.6304ZM86.2672 79.4C87.3282 79.4 88.2739 79.259 89.041 78.9104L88.2134 77.0896C87.8071 77.2743 87.1795 77.4 86.2672 77.4V79.4ZM89.0259 78.9171C89.7802 78.5891 90.4093 78.1067 90.8091 77.427L89.0853 76.413C88.9517 76.6399 88.7009 76.8775 88.2285 77.0829L89.0259 78.9171ZM90.7868 77.4632C91.1939 76.8341 91.3872 76.1221 91.3872 75.36H89.3872C89.3872 75.7713 89.2872 76.0992 89.1076 76.3767L90.7868 77.4632ZM91.3872 75.36C91.3872 74.3762 91.0295 73.5081 90.3343 72.8129L88.9201 74.2271C89.2382 74.5452 89.3872 74.9038 89.3872 75.36H91.3872ZM90.3531 72.8323C89.775 72.222 89.0211 71.6935 88.1258 71.2314L87.2085 73.0086C87.9666 73.3999 88.5193 73.8046 88.9012 74.2077L90.3531 72.8323ZM88.148 71.2432C87.3008 70.7786 86.3363 70.2897 85.2562 69.7767L84.3981 71.5833C85.4514 72.0836 86.3803 72.5548 87.1864 72.9968L88.148 71.2432ZM85.2599 69.7785C84.6132 69.468 83.9101 69.1037 83.1503 68.6844L82.1841 70.4356C82.9709 70.8697 83.7079 71.252 84.3945 71.5815L85.2599 69.7785ZM83.1729 68.6973C82.4601 68.2795 81.7662 67.7723 81.0916 67.1726L79.7628 68.6674C80.5282 69.3477 81.3276 69.9339 82.1615 70.4227L83.1729 68.6973ZM81.1203 67.1992C80.5184 66.6205 80.0126 65.9187 79.6067 65.0831L77.8077 65.9569C78.3085 66.9879 78.9493 67.8862 79.7341 68.6408L81.1203 67.1992ZM79.6067 65.0831C79.2344 64.3165 79.0272 63.3535 79.0272 62.16H77.0272C77.0272 63.5799 77.2733 64.8568 77.8077 65.9569L79.6067 65.0831ZM79.0272 62.16C79.0272 60.6074 79.3773 59.351 80.0278 58.3417L78.3466 57.2583C77.4504 58.649 77.0272 60.2992 77.0272 62.16H79.0272ZM80.0248 58.3463C80.7114 57.2935 81.6756 56.4817 82.9533 55.9138L82.141 54.0862C80.5388 54.7983 79.263 55.8531 78.3496 57.2537L80.0248 58.3463ZM82.9471 55.9165C84.2619 55.3428 85.8403 55.04 87.7072 55.04V53.04C85.6274 53.04 83.7658 53.3772 82.1472 54.0835L82.9471 55.9165ZM87.7072 55.04C89.1227 55.04 90.451 55.2042 91.6956 55.5278L92.1988 53.5922C90.7767 53.2224 89.2784 53.04 87.7072 53.04V55.04ZM91.7002 55.529C93.0012 55.8606 94.3633 56.3352 95.7872 56.9565L96.5871 55.1235C95.0777 54.4648 93.6132 53.9527 92.1942 53.591L91.7002 55.529ZM95.2636 55.6565L93.3036 60.3765L95.1507 61.1435L97.1107 56.4235L95.2636 55.6565ZM94.6051 59.8342C93.2735 59.2907 92.0638 58.8636 90.9786 58.5575L90.4357 60.4824C91.4306 60.7631 92.5675 61.1627 93.8493 61.6858L94.6051 59.8342ZM90.9786 58.5576C89.8493 58.239 88.6912 58.08 87.5072 58.08V60.08C88.5098 60.08 89.4851 60.2143 90.4357 60.4824L90.9786 58.5576ZM87.5072 58.08C86.6568 58.08 85.8696 58.2163 85.1768 58.5281L85.9976 60.3519C86.3714 60.1837 86.8643 60.08 87.5072 60.08V58.08ZM85.1768 58.5281C84.4987 58.8332 83.9331 59.2772 83.5231 59.8735L85.1712 61.0065C85.3479 60.7495 85.609 60.5268 85.9976 60.3519L85.1768 58.5281ZM83.4992 59.91C83.1177 60.5205 82.9472 61.2176 82.9472 61.96H84.9472C84.9472 61.5291 85.0434 61.2129 85.1952 60.97L83.4992 59.91ZM82.9472 61.96C82.9472 62.8437 83.2187 63.6479 83.779 64.3202L85.3154 63.0398C85.0756 62.7521 84.9472 62.4096 84.9472 61.96H82.9472ZM83.7974 64.3416C84.3056 64.9177 85.0186 65.4247 85.8766 65.8824L86.8178 64.1176C86.0758 63.7219 85.5887 63.349 85.297 63.0184L83.7974 64.3416ZM85.8766 65.8824C86.6906 66.3165 87.7019 66.8287 88.908 67.4184L89.7864 65.6216C88.5925 65.0379 87.6038 64.5369 86.8178 64.1176L85.8766 65.8824ZM88.9198 67.4241C90.3439 68.0973 91.525 68.7858 92.474 69.4851L93.6604 67.8749C92.5827 67.0809 91.2838 66.3294 89.7746 65.6159L88.9198 67.4241ZM92.484 69.4923C93.4163 70.1617 94.111 70.9334 94.5919 71.8037L96.3424 70.8363C95.7034 69.6799 94.798 68.6916 93.6504 67.8677L92.484 69.4923ZM94.5919 71.8037C95.0498 72.6321 95.3072 73.7081 95.3072 75.08H97.3072C97.3072 73.4653 97.0046 72.0346 96.3424 70.8363L94.5919 71.8037Z" fill="black"/>
</svg>
