<svg version="1.1" id="Layer_1" xmlns="http://www.w3.org/2000/svg" xmlns:xlink="http://www.w3.org/1999/xlink" x="0px" y="0px"
	 width="100%" viewBox="0 0 343 350" enable-background="new 0 0 343 350" xml:space="preserve">
<path fill="#FDFDFE" opacity="1.000000" stroke="none" 
	d="
M200.000000,351.000000 
	C133.333344,351.000000 67.166687,351.000000 1.000027,351.000000 
	C1.000018,234.333359 1.000018,117.666733 1.000009,1.000074 
	C115.333282,1.000049 229.666565,1.000049 343.999878,1.000025 
	C343.999939,117.666595 343.999939,234.333191 343.999969,350.999878 
	C296.166656,351.000000 248.333328,351.000000 200.000000,351.000000 
M126.027580,320.532379 
	C127.484085,320.873810 128.934387,321.244751 130.397995,321.552307 
	C164.151703,328.644897 197.023560,325.655304 228.640289,311.944244 
	C261.952728,297.497864 287.678589,274.292450 305.556488,242.611359 
	C315.807037,224.446533 322.145996,204.931793 324.952728,184.258163 
	C325.345734,181.363342 324.743530,179.749573 321.553772,178.871964 
	C313.527802,176.663773 305.559357,174.199646 297.697357,171.465668 
	C294.552094,170.371902 292.832764,170.660339 290.673859,173.469940 
	C284.055786,182.082596 272.486267,184.000000 263.379120,178.168625 
	C260.996368,176.642914 259.266113,176.348175 256.649780,177.653320 
	C211.960358,199.946396 167.222855,222.143295 122.459175,244.287018 
	C119.892822,245.556534 118.959564,246.978836 119.050644,249.989929 
	C119.366173,260.420715 113.806160,267.721252 104.066811,271.075256 
	C102.500778,271.614594 100.598839,273.653137 100.375488,275.216278 
	C98.892120,285.598083 97.691391,296.027466 96.764542,306.473846 
	C96.627419,308.019379 98.050301,310.703339 99.384171,311.216766 
	C107.903740,314.496002 116.600388,317.315155 126.027580,320.532379 
M313.651794,102.032707 
	C301.367676,73.939651 283.145569,50.555252 257.941132,32.966194 
	C221.750061,7.710052 181.726273,-1.364033 138.052872,5.138986 
	C133.094025,5.877364 131.639328,8.114171 131.141922,12.630150 
	C128.446701,37.099976 125.485229,61.540504 122.804344,86.011818 
	C122.639458,87.516991 123.653702,89.773598 124.867592,90.698265 
	C129.743561,94.412498 132.762009,99.035553 134.098465,105.043617 
	C134.452866,106.636848 136.256058,108.635330 137.811676,109.127441 
	C176.942520,121.506058 216.119507,133.739609 255.339691,145.832260 
	C257.009491,146.347092 259.585175,145.857559 261.035431,144.836655 
	C270.441010,138.215561 279.273315,138.345215 288.572174,145.408600 
	C289.666779,146.240067 291.752777,146.989182 292.774872,146.503830 
	C302.814270,141.736557 312.725555,136.699478 323.382202,131.385483 
	C320.149933,121.606781 317.033569,112.178772 313.651794,102.032707 
M64.395912,259.950104 
	C67.382210,258.479187 70.290596,256.811005 73.376457,255.592194 
	C76.535866,254.344330 77.865219,252.529053 77.996155,248.942856 
	C78.275970,241.278748 82.564110,235.694946 89.278931,232.534592 
	C92.880630,230.839462 93.930779,228.679962 94.264023,225.043808 
	C95.750839,208.820938 97.304031,192.599182 99.204277,176.420609 
	C100.946289,161.589172 103.116364,146.806870 105.210953,132.018936 
	C105.633636,129.034760 104.940735,127.232330 102.163765,125.569954 
	C96.926346,122.434685 93.636406,117.582291 92.962776,111.422684 
	C92.640015,108.471405 91.426346,107.145271 88.632332,106.322174 
	C78.112709,103.223167 67.661873,99.890358 57.188919,96.633369 
	C45.970367,93.144508 34.755928,89.642441 23.261906,86.059547 
	C20.426697,91.968582 17.458923,97.374107 15.170799,103.053444 
	C3.246789,132.649933 -0.103923,163.169968 5.999518,194.578903 
	C11.278834,221.746811 23.074545,245.848907 40.487530,267.292969 
	C42.527431,269.805115 44.375160,270.185333 47.239174,268.608917 
	C52.630215,265.641571 58.216824,263.029572 64.395912,259.950104 
M222.735611,181.294830 
	C231.842346,176.801346 240.864655,172.122757 250.099579,167.910309 
	C253.538086,166.341843 253.885010,164.235092 253.876434,160.915466 
	C253.866714,157.148239 251.267136,157.151566 249.028305,156.451965 
	C211.103180,144.601135 173.156448,132.819168 135.257782,120.884491 
	C132.130615,119.899712 130.210754,120.223862 127.938805,122.745827 
	C126.015869,124.880363 122.973793,125.965263 120.635201,127.782608 
	C119.269630,128.843811 117.475182,130.328445 117.295357,131.796677 
	C113.412292,163.502045 109.691460,195.227646 106.113998,226.969025 
	C105.918991,228.699341 106.710007,231.295578 107.978645,232.272659 
	C110.331383,234.084702 112.451019,236.331924 116.630234,234.215607 
	C151.667694,216.472839 186.899536,199.113953 222.735611,181.294830 
M101.647240,91.035667 
	C103.587959,90.102852 105.685989,89.392616 107.419884,88.167152 
	C108.820160,87.177475 110.541573,85.699738 110.803024,84.207657 
	C111.823387,78.384430 112.318535,72.469246 113.011444,66.588554 
	C114.249802,56.078777 115.516129,45.572216 116.720955,35.058605 
	C117.667793,26.796173 118.539597,18.525143 119.526360,9.512336 
	C81.467354,21.326124 52.068623,43.049076 29.703014,75.734573 
	C32.662685,76.377419 35.073574,76.698601 37.353580,77.428566 
	C54.467140,82.907722 71.619896,88.278336 88.610924,94.117805 
	C93.680267,95.860031 97.732315,96.305840 101.647240,91.035667 
M76.675087,267.053864 
	C68.748489,271.010223 60.821888,274.966583 52.543644,279.098450 
	C62.176571,289.221191 72.291672,297.458344 84.903603,303.709076 
	C86.139069,293.450531 86.882629,284.001251 88.560173,274.720825 
	C89.406517,270.038727 87.183426,267.617004 83.985245,266.052429 
	C82.296043,265.226013 79.606842,266.443665 76.675087,267.053864 
M323.191010,144.833633 
	C314.401947,149.150345 305.612854,153.467072 296.823792,157.783783 
	C296.948853,158.199722 297.073944,158.615677 297.199005,159.031616 
	C306.628265,161.926193 316.057526,164.820755 325.909271,167.845032 
	C325.909271,162.699036 326.156311,158.216415 325.824493,153.777039 
	C325.594208,150.695679 324.567352,147.673859 323.191010,144.833633 
z"/>
<path fill="#5B4AE2" opacity="1.000000" stroke="none" 
	d="
M125.633171,320.409058 
	C116.600388,317.315155 107.903740,314.496002 99.384171,311.216766 
	C98.050301,310.703339 96.627419,308.019379 96.764542,306.473846 
	C97.691391,296.027466 98.892120,285.598083 100.375488,275.216278 
	C100.598839,273.653137 102.500778,271.614594 104.066811,271.075256 
	C113.806160,267.721252 119.366173,260.420715 119.050644,249.989929 
	C118.959564,246.978836 119.892822,245.556534 122.459175,244.287018 
	C167.222855,222.143295 211.960358,199.946396 256.649780,177.653320 
	C259.266113,176.348175 260.996368,176.642914 263.379120,178.168625 
	C272.486267,184.000000 284.055786,182.082596 290.673859,173.469940 
	C292.832764,170.660339 294.552094,170.371902 297.697357,171.465668 
	C305.559357,174.199646 313.527802,176.663773 321.553772,178.871964 
	C324.743530,179.749573 325.345734,181.363342 324.952728,184.258163 
	C322.145996,204.931793 315.807037,224.446533 305.556488,242.611359 
	C287.678589,274.292450 261.952728,297.497864 228.640289,311.944244 
	C197.023560,325.655304 164.151703,328.644897 130.397995,321.552307 
	C128.934387,321.244751 127.484085,320.873810 125.633171,320.409058 
z"/>
<path fill="#5B4AE2" opacity="1.000000" stroke="none" 
	d="
M313.784485,102.391739 
	C317.033569,112.178772 320.149933,121.606781 323.382202,131.385483 
	C312.725555,136.699478 302.814270,141.736557 292.774872,146.503830 
	C291.752777,146.989182 289.666779,146.240067 288.572174,145.408600 
	C279.273315,138.345215 270.441010,138.215561 261.035431,144.836655 
	C259.585175,145.857559 257.009491,146.347092 255.339691,145.832260 
	C216.119507,133.739609 176.942520,121.506058 137.811676,109.127441 
	C136.256058,108.635330 134.452866,106.636848 134.098465,105.043617 
	C132.762009,99.035553 129.743561,94.412498 124.867592,90.698265 
	C123.653702,89.773598 122.639458,87.516991 122.804344,86.011818 
	C125.485229,61.540504 128.446701,37.099976 131.141922,12.630150 
	C131.639328,8.114171 133.094025,5.877364 138.052872,5.138986 
	C181.726273,-1.364033 221.750061,7.710052 257.941132,32.966194 
	C283.145569,50.555252 301.367676,73.939651 313.784485,102.391739 
z"/>
<path fill="#5B4AE2" opacity="1.000000" stroke="none" 
	d="
M64.059021,260.109985 
	C58.216824,263.029572 52.630215,265.641571 47.239174,268.608917 
	C44.375160,270.185333 42.527431,269.805115 40.487530,267.292969 
	C23.074545,245.848907 11.278834,221.746811 5.999518,194.578903 
	C-0.103923,163.169968 3.246789,132.649933 15.170799,103.053444 
	C17.458923,97.374107 20.426697,91.968582 23.261906,86.059547 
	C34.755928,89.642441 45.970367,93.144508 57.188919,96.633369 
	C67.661873,99.890358 78.112709,103.223167 88.632332,106.322174 
	C91.426346,107.145271 92.640015,108.471405 92.962776,111.422684 
	C93.636406,117.582291 96.926346,122.434685 102.163765,125.569954 
	C104.940735,127.232330 105.633636,129.034760 105.210953,132.018936 
	C103.116364,146.806870 100.946289,161.589172 99.204277,176.420609 
	C97.304031,192.599182 95.750839,208.820938 94.264023,225.043808 
	C93.930779,228.679962 92.880630,230.839462 89.278931,232.534592 
	C82.564110,235.694946 78.275970,241.278748 77.996155,248.942856 
	C77.865219,252.529053 76.535866,254.344330 73.376457,255.592194 
	C70.290596,256.811005 67.382210,258.479187 64.059021,260.109985 
z"/>
<path fill="#5B4BE2" opacity="1.000000" stroke="none" 
	d="
M222.404205,181.467117 
	C186.899536,199.113953 151.667694,216.472839 116.630234,234.215607 
	C112.451019,236.331924 110.331383,234.084702 107.978645,232.272659 
	C106.710007,231.295578 105.918991,228.699341 106.113998,226.969025 
	C109.691460,195.227646 113.412292,163.502045 117.295357,131.796677 
	C117.475182,130.328445 119.269630,128.843811 120.635201,127.782608 
	C122.973793,125.965263 126.015869,124.880363 127.938805,122.745827 
	C130.210754,120.223862 132.130615,119.899712 135.257782,120.884491 
	C173.156448,132.819168 211.103180,144.601135 249.028305,156.451965 
	C251.267136,157.151566 253.866714,157.148239 253.876434,160.915466 
	C253.885010,164.235092 253.538086,166.341843 250.099579,167.910309 
	C240.864655,172.122757 231.842346,176.801346 222.404205,181.467117 
z"/>
<path fill="#5C4BE2" opacity="1.000000" stroke="none" 
	d="
M101.357330,91.264030 
	C97.732315,96.305840 93.680267,95.860031 88.610924,94.117805 
	C71.619896,88.278336 54.467140,82.907722 37.353580,77.428566 
	C35.073574,76.698601 32.662685,76.377419 29.703014,75.734573 
	C52.068623,43.049076 81.467354,21.326124 119.526360,9.512336 
	C118.539597,18.525143 117.667793,26.796173 116.720955,35.058605 
	C115.516129,45.572216 114.249802,56.078777 113.011444,66.588554 
	C112.318535,72.469246 111.823387,78.384430 110.803024,84.207657 
	C110.541573,85.699738 108.820160,87.177475 107.419884,88.167152 
	C105.685989,89.392616 103.587959,90.102852 101.357330,91.264030 
z"/>
<path fill="#5E4EDF" opacity="1.000000" stroke="none" 
	d="
M77.022110,266.896149 
	C79.606842,266.443665 82.296043,265.226013 83.985245,266.052429 
	C87.183426,267.617004 89.406517,270.038727 88.560173,274.720825 
	C86.882629,284.001251 86.139069,293.450531 84.903603,303.709076 
	C72.291672,297.458344 62.176571,289.221191 52.543644,279.098450 
	C60.821888,274.966583 68.748489,271.010223 77.022110,266.896149 
z"/>
<path fill="#6050DB" opacity="1.000000" stroke="none" 
	d="
M323.543701,144.729523 
	C324.567352,147.673859 325.594208,150.695679 325.824493,153.777039 
	C326.156311,158.216415 325.909271,162.699036 325.909271,167.845032 
	C316.057526,164.820755 306.628265,161.926193 297.199005,159.031616 
	C297.073944,158.615677 296.948853,158.199722 296.823792,157.783783 
	C305.612854,153.467072 314.401947,149.150345 323.543701,144.729523 
z"/>
</svg>